<svg xmlns="http://www.w3.org/2000/svg" data-name="Layer 1" viewBox="0 0 700 550" id="girl-with-plant"><path fill="#020202" d="M464.39865,289.58884c2.33791-3.09647,2.8114-5.12286,4.21179-8.71361a61.19867,61.19867,0,0,0,3.17006-11.10811,75.95453,75.95453,0,0,0,1.214-11.48425c.07821-3.83919-.07277-7.74584.0456-11.62992.13137-3.886.35843-7.77194.80285-11.63819a96.66521,96.66521,0,0,1,1.87223-11.51934,68.39785,68.39785,0,0,1,3.47131-11.142,31.593,31.593,0,0,1,6.20947-9.804,32.73808,32.73808,0,0,0-5.74945,9.9909,68.41529,68.41529,0,0,0-3.16983,11.11909,131.048,131.048,0,0,0-2.42533,23.02132c-.14838,3.8679-.02765,7.71725-.137,11.63133a68.09242,68.09242,0,0,1-1.373,11.60641,61.19466,61.19466,0,0,1-3.47439,11.14473,49.33652,49.33652,0,0,1-2.61459,5.216A13.67925,13.67925,0,0,1,464.39865,289.58884Z"></path><path fill="#020202" d="M466.57046 285.5194a18.26436 18.26436 0 01-3.30214-2.49716c-.49381-.47834-.97274-.977-1.44717-1.49017-.43143-.53528-.87-1.0767-1.27516-1.64588-.40686-.56575-.91343-1.1067-1.37227-1.68285a3.28183 3.28183 0 01-.68259-1.99331 5.72085 5.72085 0 01.44419-2.26739 6.30092 6.30092 0 011.65981-2.31889l.67078-.09546a11.27882 11.27882 0 012.34666 1.39188 7.35528 7.35528 0 011.38054 1.3881 2.466 2.466 0 01.48128 1.59673 9.62329 9.62329 0 00.04017 1.81694c.08222.59127.20414 1.177.3244 1.7724.10325.605.21832 1.21538.35725 1.82484.24123 1.239.567 2.48264.89712 3.76938zM469.82417 275.78982a18.25925 18.25925 0 01-3.30215-2.49716c-.4938-.47834-.97273-.977-1.44693-1.49017-.43167-.53528-.87019-1.07669-1.2754-1.64588-.40662-.56575-.91342-1.10669-1.37227-1.68284a3.28134 3.28134 0 01-.68235-1.9932 5.71252 5.71252 0 01.44419-2.2675 6.296 6.296 0 011.65982-2.31878l.67054-.09546a11.2618 11.2618 0 012.34665 1.39188 7.35264 7.35264 0 011.38078 1.388 2.466 2.466 0 01.481 1.59673 9.64162 9.64162 0 00.04017 1.81693c.08246.59139.20437 1.17711.32463 1.7724.103.605.21808 1.21538.35725 1.82485.24123 1.239.567 2.48275.89689 3.76937zM472.99636 265.338a18.25367 18.25367 0 01-3.30191-2.49705c-.494-.47833-.973-.9771-1.44716-1.49028-.43167-.53516-.8702-1.0767-1.2754-1.64576-.40663-.56575-.9132-1.1067-1.37227-1.683a3.28132 3.28132 0 01-.68236-1.99319 5.716 5.716 0 01.44419-2.26739 6.29811 6.29811 0 011.65982-2.31889l.67054-.09546a11.26715 11.26715 0 012.34666 1.39188 7.35987 7.35987 0 011.38077 1.388 2.46612 2.46612 0 01.481 1.59685 9.62194 9.62194 0 00.04041 1.81682c.08222.59139.20413 1.17711.3244 1.77239.103.605.21808 1.21551.35724 1.825.24124 1.2389.567 2.48263.89689 3.76937zM473.62012 251.58407a18.256 18.256 0 01-3.30214-2.49716c-.49381-.47833-.97274-.977-1.44717-1.49017-.43143-.53528-.87019-1.07669-1.27516-1.64587-.40686-.56576-.91343-1.1067-1.37227-1.68285a3.28185 3.28185 0 01-.68259-1.99332 5.71656 5.71656 0 01.44419-2.26738 6.29807 6.29807 0 011.65981-2.3189l.67078-.09545a11.278 11.278 0 012.34666 1.39188 7.35431 7.35431 0 011.38053 1.3881 2.46583 2.46583 0 01.48106 1.59673 9.62229 9.62229 0 00.0404 1.81693c.08222.59127.20414 1.177.3244 1.7724.103.605.21808 1.21538.35724 1.82485.24124 1.239.56706 2.48263.89689 3.76937zM474.20986 237.53059a18.25579 18.25579 0 01-3.30215-2.497c-.49381-.47846-.97273-.97711-1.44717-1.49029-.43143-.53516-.86995-1.07669-1.27516-1.64588-.40686-.56563-.91343-1.10669-1.37227-1.68285a3.28152 3.28152 0 01-.68259-1.99319 5.72093 5.72093 0 01.44419-2.2675 6.30154 6.30154 0 011.65982-2.31878l.67077-.09546a11.26779 11.26779 0 012.34666 1.39188 7.35434 7.35434 0 011.38054 1.388 2.46633 2.46633 0 01.48129 1.59684 9.602 9.602 0 00.04016 1.81682c.08223.59139.20414 1.17711.32441 1.7724.10325.605.21831 1.2155.35724 1.825.24123 1.2389.567 2.48264.89713 3.76938zM476.44641 224.40684a18.2547 18.2547 0 01-3.30191-2.49716c-.494-.47833-.973-.977-1.44717-1.49017-.43166-.53528-.87019-1.07669-1.27539-1.64587-.40663-.56576-.9132-1.1067-1.37227-1.68285a3.282 3.282 0 01-.68236-1.99332 5.71271 5.71271 0 01.44419-2.26738 6.29822 6.29822 0 011.65982-2.3189l.67054-.09545a11.27153 11.27153 0 012.34666 1.39188 7.35612 7.35612 0 011.38077 1.3881 2.46577 2.46577 0 01.48105 1.59673 9.62334 9.62334 0 00.0404 1.81693c.08223.59127.20414 1.177.32441 1.7724.103.60486.21808 1.21538.35724 1.82485.24123 1.239.567 2.48263.89689 3.76937zM479.46243 212.57007a18.25822 18.25822 0 01-3.30215-2.497c-.49381-.47833-.97273-.977-1.44716-1.49017-.43144-.53527-.87-1.07681-1.27517-1.64587-.40686-.56575-.91343-1.1067-1.37227-1.68285a3.28215 3.28215 0 01-.68259-1.99331 5.72081 5.72081 0 01.44419-2.26739 6.3008 6.3008 0 011.65982-2.31889l.67078-.09546a11.27845 11.27845 0 012.34665 1.39188 7.355 7.355 0 011.38054 1.3881 2.466 2.466 0 01.48129 1.59673 9.62352 9.62352 0 00.04016 1.81694c.08223.59127.20414 1.177.32441 1.77239.10325.60486.21831 1.21539.35724 1.82485.24123 1.239.567 2.48264.89713 3.76937z"></path><path fill="#020202" d="M466.153 284.36025c1.08827-.76186 2.14511-1.49384 3.13486-2.2772.50255-.372.98715-.76044 1.45922-1.15253.47892-.37355.95288-.73883 1.40038-1.13411a9.62662 9.62662 0 001.21326-1.3529 2.46571 2.46571 0 011.40488-.89878 7.35673 7.35673 0 011.95161-.15464 11.26558 11.26558 0 012.68736.47125l.447.50905a6.2991 6.2991 0 01-.25 2.84082 5.71549 5.71549 0 01-1.13907 2.0102 3.28054 3.28054 0 01-1.81575 1.06866c-.72323.13858-1.45993.21926-2.13709.38395-.6781.16822-1.36352.29368-2.0395.41891-.69417.0808-1.38243.14755-2.06856.189a18.253 18.253 0 01-4.13217-.25434zM470.54551 275.2412c.7882-1.06914 1.5568-2.1 2.24482-3.15814.35748-.51283.693-1.03558 1.0155-1.55774.33456-.50681.66723-1.00416.96517-1.52148a9.63358 9.63358 0 00.71874-1.66926 2.46615 2.46615 0 011.0448-1.29985 7.34818 7.34818 0 011.80016-.76907 11.2663 11.2663 0 012.69752-.41052l.586.34a6.29625 6.29625 0 01.66912 2.772 5.71852 5.71852 0 01-.43829 2.26857 3.28172 3.28172 0 01-1.38006 1.592c-.64148.36209-1.31391.67361-1.90318 1.04551-.589.37579-1.19861.7133-1.79945 1.04763-.632.29794-1.26287.58064-1.9001.83888a18.26141 18.26141 0 01-3.99749 1.07693zM472.43072 264.86317c.62967-1.16955 1.24516-2.29834 1.77748-3.443.2814-.55808.54012-1.12289.78561-1.68533.2599-.54886.51909-1.08816.74118-1.64233a9.62786 9.62786 0 00.47633-1.75385 2.46529 2.46529 0 01.851-1.43418 7.35468 7.35468 0 011.674-1.01514 11.2748 11.2748 0 012.61246-.78655l.628.254a6.29688 6.29688 0 011.0533 2.65 5.71727 5.71727 0 01-.11436 2.30768 3.28069 3.28069 0 01-1.1419 1.77062c-.58383.4488-1.2057.852-1.7366 1.30328-.5302.45506-1.08615.87515-1.63383 1.29087-.58383.38395-1.1686.75277-1.76306 1.09832a18.25513 18.25513 0 01-3.80588 1.62945zM473.60027 250.39527c.6299-1.16955 1.24516-2.29846 1.77748-3.443.28164-.55808.54012-1.123.78561-1.68534.25989-.549.51932-1.08815.74142-1.64232a9.647 9.647 0 00.47609-1.75385 2.46456 2.46456 0 01.851-1.43418 7.3504 7.3504 0 011.674-1.01514 11.26628 11.26628 0 012.61246-.78655l.628.254a6.29576 6.29576 0 011.05331 2.64991 5.71366 5.71366 0 01-.11412 2.30779 3.28172 3.28172 0 01-1.14191 1.77051c-.58406.44892-1.20593.85212-1.73683 1.3034-.5302.45494-1.08615.875-1.63383 1.29075-.58383.38406-1.1686.75288-1.76306 1.09832a18.25266 18.25266 0 01-3.80564 1.62957zM474.42014 236.53258c.62966-1.16955 1.24515-2.29834 1.77724-3.44285.28163-.55819.54035-1.123.78584-1.68545.2599-.54886.51909-1.088.74119-1.64232a9.62806 9.62806 0 00.47632-1.75385 2.46459 2.46459 0 01.851-1.43406 7.35526 7.35526 0 011.674-1.01526 11.27392 11.27392 0 012.61247-.78655l.628.254a6.29683 6.29683 0 011.0533 2.65 5.71783 5.71783 0 01-.11435 2.30779 3.28046 3.28046 0 01-1.14191 1.77051c-.58383.4488-1.2057.85211-1.7366 1.30339-.5302.45495-1.08614.875-1.63382 1.29076-.58383.38394-1.16861.75276-1.76307 1.09831a18.25417 18.25417 0 01-3.80587 1.62946zM475.83328 223.41c.93824-.94025 1.8512-1.84541 2.689-2.78955.42954-.45412.839-.92123 1.23547-1.38975.40639-.45152.809-.89382 1.18065-1.36117a9.64044 9.64044 0 00.95856-1.544 2.46586 2.46586 0 011.22625-1.13021 7.357 7.357 0 011.89443-.49322 11.2757 11.2757 0 012.72848-.00531l.529.42328a6.297 6.297 0 01.25 2.8407 5.71385 5.71385 0 01-.77049 2.17831 3.28082 3.28082 0 01-1.60122 1.3692c-.688.26286-1.3992.471-2.03714.75135-.6384.284-1.29123.52724-1.93507.76871-.66936.20071-1.33541.38654-2.00382.54733a18.25255 18.25255 0 01-4.113.47112zM478.84765 212.08937c.62966-1.16955 1.24515-2.29845 1.77747-3.443.2814-.55807.54012-1.123.78561-1.68533.2599-.549.51909-1.08815.74118-1.64233a9.62764 9.62764 0 00.47633-1.75385 2.46453 2.46453 0 01.851-1.43417 7.35077 7.35077 0 011.674-1.01515 11.263 11.263 0 012.61247-.78655l.628.254a6.29576 6.29576 0 011.0533 2.64991 5.71782 5.71782 0 01-.11436 2.30779 3.28044 3.28044 0 01-1.1419 1.77051c-.58383.44891-1.2057.85211-1.7366 1.30339-.5302.45495-1.08615.875-1.63383 1.29076-.58382.38406-1.1686.75288-1.76306 1.09831a18.2484 18.2484 0 01-3.80588 1.62957zM502.93388 263.12539a31.8707 31.8707 0 00-6.49371 8.65194c-.08719.14518-.16457.29994-.24194.45482a1.05626 1.05626 0 00-.0775.14519c-.00969.00969-.00969.01937-.01938.02906a66.30762 66.30762 0 00-4.04522 9.60022v.00969a1.73437 1.73437 0 01-.07749.20319v.01937c-.09664.29038-.18382.57108-.28058.86145q-.05812.18855-.11612.37733a1.53162 1.53162 0 00-.08719.30007c-.52252 1.64516-1.0064 3.3097-1.45166 4.97424h-.90964c.49357-1.84836 1.055-3.69684 1.6936-5.50656.04843-.12582.08718-.26132.1355-.387.26131-.7452.5322-1.48072.82258-2.21623v-.00969a62.39866 62.39866 0 013.813-8.34231c.01938-.02894.02906-.04831.04844-.07726.00969-.00968.00969-.02906.01937-.03875.21289-.37744.43545-.7452.6774-1.12264v-.00969A29.83553 29.83553 0 01502.93388 263.12539z"></path><path fill="#020202" d="M491.58674 283.84234a18.24739 18.24739 0 01-3.00113-2.85169c-.4371-.53079-.857-1.08-1.27091-1.64316-.36882-.58016-.74378-1.16742-1.0826-1.77842-.3407-.60781-.78348-1.20215-1.17474-1.82615a3.28064 3.28064 0 01-.45483-2.05722 5.71807 5.71807 0 01.69582-2.20336 6.2989 6.2989 0 011.90932-2.11806l.67716-.01962a11.26937 11.26937 0 012.17583 1.64635 7.34727 7.34727 0 011.21609 1.534 2.4655 2.4655 0 01.29912 1.64067 9.6265 9.6265 0 00-.16373 1.81c.01536.59682.07088 1.19258.12357 1.79768.03449.61265.08033 1.23216.15027 1.85332.10089 1.25827.28518 2.53071.46853 3.84628zM495.91124 272.41857a18.24746 18.24746 0 01-3.00114-2.85169c-.4371-.53067-.85719-1.07988-1.2709-1.643-.36883-.58028-.744-1.16754-1.0826-1.77854-.341-.60781-.78348-1.20215-1.175-1.82615a3.28219 3.28219 0 01-.45459-2.05722 5.71807 5.71807 0 01.69559-2.20336 6.30094 6.30094 0 011.90955-2.11806l.67716-.01961a11.2637 11.2637 0 012.1756 1.64634 7.35255 7.35255 0 011.21633 1.53412 2.46532 2.46532 0 01.29888 1.64067 9.62481 9.62481 0 00-.1635 1.80985c.01536.59682.07088 1.19258.12357 1.79768.0345.61265.08033 1.23216.15027 1.85344.10065 1.25815.28494 2.53059.46853 3.84616z"></path><path fill="#020202" d="M491.08915 282.78313c1.03795-.82908 2.04659-1.62626 2.98483-2.47047.478-.403.93729-.82128 1.38361-1.24232.45435-.40308.90445-.79753 1.326-1.22022a9.62065 9.62065 0 001.1256-1.42673 2.46627 2.46627 0 011.34534-.98562 7.35546 7.35546 0 011.93791-.27762 11.271 11.271 0 012.71169.30078l.47822.47987a6.30115 6.30115 0 01-.06994 2.85086 5.72025 5.72025 0 01-1.01006 2.07813 3.28127 3.28127 0 01-1.74464 1.181c-.7133.18394-1.44339.31105-2.10873.518-.666.21075-1.34226.37922-2.009.54685-.68779.1244-1.37015.2345-2.0525.31921a18.25264 18.25264 0 01-4.14.00685zM495.35434 271.872c.75678-1.09158 1.4949-2.14429 2.15221-3.22193.34236-.523.66274-1.05531.96966-1.58656.31991-.51638.63793-1.02306.92075-1.54889a9.62773 9.62773 0 00.67007-1.68935 2.46556 2.46556 0 011.00652-1.32962 7.35357 7.35357 0 011.77724-.821 11.26775 11.26775 0 012.68429-.48862l.59564.32287a6.29992 6.29992 0 01.74946 2.75139 5.72124 5.72124 0 01-.37236 2.28038 3.2818 3.2818 0 01-1.33353 1.63123c-.63061.38052-1.29359.71153-1.872 1.10044-.57769.39256-1.17735.74768-1.768 1.09937-.62328.31614-1.24563.617-1.87529.8937a18.25015 18.25015 0 01-3.96442 1.19235zM449.99682 289.19721c.03875.12582.07738.25163.12569.37745l-.63738-.53229c-.24194-.04832-.44262-.25565-.67488-.31377-.48388-1.442-.59422-1.825-1.02-3.27666-.01937-.05812-.02906-.11612-.04844-.17413-.86121-2.98081-1.66453-5.98088-2.34193-9.01-.16456-.70645-.31944-1.4226-.46451-2.12905-.06781-.3485-.14531-.6872-.213-1.03558v-.00969a92.74563 92.74563 0 01-1.54841-10.07442c-.01937-.13562-.02906-.271-.03875-.40662-.06769-.7934-.13538-1.587-.18382-2.38068v-.00969a65.55988 65.55988 0 01.00969-9.14539.267.267 0 01.00969-.08707v-.04844c.03875-.44513.08706-.871.14507-1.31615v-.00969a29.8855 29.8855 0 012.70981-9.91966 32.07681 32.07681 0 00-2.313 10.54874c-.01926.18393-.029.35807-.03863.54189v.00968c0 .04844-.00969.09688-.00969.14519v.03875a65.316 65.316 0 00.329 10.38417 1.38769 1.38769 0 00.02894.28058c.01938.30006.05812.59044.08719.89051.01937.12569.02906.25163.04843.37732a3.04046 3.04046 0 00.03863.30976 114.19352 114.19352 0 002.05167 11.67126v.01938c.03875.19362.0775.35807.13551.55157a.25788.25788 0 00.02906.11625 3.78674 3.78674 0 00.09675.45482c.71614 3.06776 1.53884 6.1067 2.44849 9.126.28069.96778.57095 1.91617.8709 2.87426v.00968c.0775.26132.16468.50326.24194.76458v.00969C449.90963 288.94558 449.95807 289.0714 449.99682 289.19721z"></path><path fill="#020202" d="M450.23876 289.39084l.1548-.69687-.90843.5342c-.24194-.04832-.60131-.35995-.83356-.41807-1.11284-.29038-1.64525.28067-2.6904-.19353-.61939-.30006-1.22909-.62907-1.83879-.96777-.58064-.37744-1.16128-.75489-1.72266-1.171-.56127-.40651-1.21941-.76458-1.829-1.17109a3.275 3.275 0 01-1.26784-1.68391 5.69648 5.69648 0 01-.28069-2.29361 6.15375 6.15375 0 01.85176-2.7195l.60959-.3a11.69941 11.69941 0 012.66137.59033 7.70525 7.70525 0 011.742.89027 2.49122 2.49122 0 01.95808 1.3744 9.452 9.452 0 00.6 1.71286c.26132.53232.56127 1.05484.86133 1.58716.14508.271.2807.542.43545.813s.30976.54189.4742.80309c.4162.75489.88071 1.50009 1.35491 2.26467.09675.15476.19362.30975.29994.46451v.00969c.0775.11613.155.23225.23226.35807C450.15158 289.24553 450.19032 289.323 450.23876 289.39084zM446.06674 276.41949a18.24533 18.24533 0 01-3.91456-1.34735c-.61808-.30113-1.22838-.62635-1.83867-.9667-.5765-.37461-1.16151-.753-1.7236-1.168-.56233-.41135-1.21208-.76812-1.82733-1.17309a3.282 3.282 0 01-1.26808-1.6825 5.71509 5.71509 0 01-.28234-2.29325 6.29765 6.29765 0 01.857-2.71985l.60792-.29913a11.27144 11.27144 0 012.663.59376 7.35726 7.35726 0 011.74345.89027 2.46481 2.46481 0 01.9536 1.36825 9.62251 9.62251 0 00.603 1.7144c.26179.53645.55973 1.05531.85908 1.58385.28589.543.585 1.08744.90658 1.62343.61431 1.10268 1.3106 2.18363 2.02391 3.304zM444.11419 263.25037a18.2536 18.2536 0 01-3.91456-1.34734c-.61809-.30113-1.22814-.62636-1.83844-.96671-.5765-.37461-1.16175-.753-1.7236-1.168-.56257-.41135-1.21208-.76812-1.82733-1.17309a3.282 3.282 0 01-1.26808-1.6825 5.71532 5.71532 0 01-.28234-2.29326 6.29783 6.29783 0 01.857-2.71985l.60769-.29912a11.26656 11.26656 0 012.663.59375 7.355 7.355 0 011.74369.89028 2.466 2.466 0 01.95359 1.36825 9.62249 9.62249 0 00.60273 1.71439c.262.53646.56 1.05531.85932 1.58386.28589.543.585 1.08744.90658 1.62342.61431 1.10269 1.3106 2.18351 2.02391 3.304zM443.30259 251.06262a18.26241 18.26241 0 01-3.91456-1.34735c-.61808-.30124-1.22814-.62635-1.83867-.96682-.5765-.37461-1.16151-.753-1.72337-1.168-.56256-.41135-1.21208-.76813-1.82733-1.1731a3.28071 3.28071 0 01-1.26807-1.68249 5.71512 5.71512 0 01-.28258-2.29326 6.29842 6.29842 0 01.85719-2.71985l.60769-.29912a11.27465 11.27465 0 012.663.59375 7.35941 7.35941 0 011.74369.89027 2.466 2.466 0 01.95336 1.36826 9.62269 9.62269 0 00.603 1.71439c.262.53646.56 1.05531.85908 1.58385.28613.543.585 1.08745.90682 1.62343.6143 1.10268 1.31036 2.18363 2.0239 3.304z"></path><path fill="#020202" d="M449.48513 288.83666c.23509-1.30741.46924-2.57159.61951-3.82477.09427-.61809.16444-1.23524.223-1.84612.07655-.60261.15523-1.19565.19422-1.79142a9.62928 9.62928 0 00-.09239-1.81492 2.46489 2.46489 0 01.36315-1.62768 7.35933 7.35933 0 011.27564-1.48509 11.26811 11.26811 0 012.23892-1.55952l.67573.04631a6.30027 6.30027 0 011.82474 2.19143 5.71424 5.71424 0 01.6084 2.229 3.28039 3.28039 0 01-.53516 2.03773c-.4156.60817-.8813 1.18467-1.24586 1.77866-.36245.59718-.76033 1.16919-1.15159 1.73448-.43569.54649-.87681 1.0787-1.33447 1.59188a18.26087 18.26087 0 01-3.111 2.73155zM445.95641 275.40564c.23509-1.30741.46923-2.57159.6195-3.82489.09427-.618.16445-1.23524.223-1.846.07655-.60261.15547-1.19566.19422-1.79142a9.6301 9.6301 0 00-.09238-1.81492 2.46617 2.46617 0 01.36315-1.62768 7.35894 7.35894 0 011.27563-1.48509 11.27528 11.27528 0 012.23892-1.55952l.67574.04631a6.30034 6.30034 0 011.82473 2.19143 5.71407 5.71407 0 01.6084 2.229 3.28039 3.28039 0 01-.53516 2.03773c-.4156.60817-.88129 1.18467-1.24562 1.77854-.36268.5973-.76057 1.16931-1.15183 1.7346-.43569.54649-.87681 1.0787-1.33447 1.59188a18.24546 18.24546 0 01-3.111 2.73143zM443.22155 262.49359c.59966-1.18526 1.18633-2.32941 1.68911-3.48714.26723-.565.5113-1.13635.74261-1.70482.24572-.55536.49121-1.101.69913-1.66064a9.619 9.619 0 00.4312-1.76543 2.46543 2.46543 0 01.81419-1.45544 7.35641 7.35641 0 011.64753-1.05744 11.27159 11.27159 0 012.59167-.85294l.63439.23793a6.29432 6.29432 0 011.1204 2.62227 5.71559 5.71559 0 01-.05528 2.30991A3.28158 3.28158 0 01452.44 257.479c-.57226.46356-1.18373.88248-1.70306 1.34722-.51814.4683-1.06322.90245-1.60027 1.332-.57367.39871-1.149.7823-1.73447 1.14285a18.2481 18.2481 0 01-3.76288 1.726zM442.569 250.79669c.23509-1.30741.46924-2.57158.61927-3.82489.09427-.618.16444-1.23523.22328-1.84612.07631-.60249.15523-1.19553.194-1.79129a9.612 9.612 0 00-.09239-1.81505 2.46619 2.46619 0 01.36339-1.62756 7.35633 7.35633 0 011.27563-1.48509 11.27271 11.27271 0 012.23869-1.55952l.676.04631a6.29561 6.29561 0 011.8245 2.19143 5.71868 5.71868 0 01.60863 2.229 3.28187 3.28187 0 01-.53515 2.03773c-.41561.60817-.8813 1.18467-1.24587 1.77854-.36244.59718-.76032 1.16932-1.15159 1.7346-.43569.54638-.87681 1.0787-1.33447 1.59188a18.25969 18.25969 0 01-3.111 2.73143zM423.66379 288.56814a1.568 1.568 0 01.04832.20319v.00969c-.14519.10656-.29026.21288-.43557.30975l-.30964-.21288a.62707.62707 0 01-.12581-.03875.12282.12282 0 00-.00969-.05812c-.01937-.10632-.03875-.19351-.06781-.3v-.00968c-.18382-.8904-.387-1.7613-.59989-2.642v-.00969c-.29038-1.19046-.60982-2.37111-.9484-3.55176-.6872-2.23561-1.45166-4.4711-2.19686-6.726-.48389-1.442-.9484-2.88394-1.37428-4.3356-.01937-.07749-.04832-.15487-.06769-.23225v-.00969c-.86145-2.96144-1.65485-5.94213-2.32268-8.95189q-.24684-1.05968-.46463-2.11948c-.06769-.34838-.14507-.68708-.21288-1.03546v-.00969a95.15569 95.15569 0 01-1.54841-10.07453c-.01926-.13551-.02894-.28058-.03863-.4162-.06781-.79352-.13562-1.57735-.18394-2.371v-.00969a65.68177 65.68177 0 01.00969-9.15508.26818.26818 0 01.00969-.08719v-.04831c.03863-.43557.08706-.86133.14519-1.30647v-.00969a29.87069 29.87069 0 012.7098-9.92934 32.08541 32.08541 0 00-2.30342 10.568c-.01937.17425-.02906.33881-.03874.51294v.00969a.73121.73121 0 01-.00969.14519v.04832a65.29157 65.29157 0 00.31944 10.38429 1.37929 1.37929 0 00.02906.28057v.00969c.01937.30006.05812.58075.08707.8807.01937.12582.02906.26132.04831.38713.00969.09676.01938.2032.03875.30007a116.51455 116.51455 0 002.05179 11.68095v.00969c.03863.18394.07738.34838.1257.5322a.71314.71314 0 00.03875.13562v.00969a3.66139 3.66139 0 00.09687.44514V261.79c.71614 3.06776 1.54829 6.10658 2.44837 9.126.28058.96778.571 1.92586.86133 2.88394.00969.00969.00969.01938 0 .01938.08707.24194.17414.49357.25163.73552v.00968c.03875.1355.08707.26132.12582.387.03863.12593.07738.25163.11613.36787v.00969c.71614 2.21623 1.46134 4.42266 2.12905 6.68722.37744 1.384.73551 2.76793 1.06464 4.16146.14507.629.28057 1.25815.40639 1.8968v.00968A3.89118 3.89118 0 01423.66379 288.56814z"></path><path fill="#020202" d="M423.77011 288.40369l-.10632.16445-.25163.40651c-.155-.02907-.30007-.0677-.44526-.09676a.62707.62707 0 01-.12581-.03875 18.69274 18.69274 0 01-3.34845-1.20971c-.61939-.30007-1.22909-.62908-1.83879-.96777-.57095-.37745-1.1614-.75489-1.72266-1.171-.56127-.40651-1.20972-.76458-1.82911-1.171a3.34109 3.34109 0 01-1.26772-1.684 5.69593 5.69593 0 01-.28069-2.29361 6.34539 6.34539 0 01.86133-2.71949l.6097-.3a11.2599 11.2599 0 012.66138.6 6.9823 6.9823 0 011.74191.89039 2.45126 2.45126 0 01.9484 1.36459 10.28568 10.28568 0 00.60982 1.713c.26132.54189.56127 1.05472.85153 1.587.29037.542.59044 1.084.90976 1.62591.13551.24194.271.4742.4162.71614v.00969c.271.44514.54189.89039.83227 1.34521.18393.3.37744.59033.57095.9v.00968Q423.66864 288.24409 423.77011 288.40369zM419.72876 275.70878a18.24971 18.24971 0 01-3.91457-1.34734c-.61808-.30113-1.22814-.62636-1.83843-.96671-.57674-.37461-1.16175-.753-1.72361-1.168-.56256-.41135-1.21207-.76813-1.82733-1.1731a3.28071 3.28071 0 01-1.26807-1.68249 5.7153 5.7153 0 01-.28258-2.29326 6.30119 6.30119 0 01.85719-2.71985l.60769-.29912a11.26816 11.26816 0 012.663.59375 7.35941 7.35941 0 011.74369.89027 2.46563 2.46563 0 01.95336 1.36826 9.62348 9.62348 0 00.603 1.71439c.262.53646.56 1.05531.85908 1.58385.28613.54284.585 1.08745.90682 1.62343.6143 1.10268 1.31036 2.18351 2.02391 3.304zM415.92217 262.16789a18.24963 18.24963 0 01-3.91456-1.34734c-.61809-.30113-1.22814-.62636-1.83843-.96671-.57651-.37461-1.16176-.753-1.72361-1.16813-.56257-.41123-1.21208-.768-1.82733-1.17309a3.281 3.281 0 01-1.26808-1.68238 5.71555 5.71555 0 01-.28258-2.29326 6.30078 6.30078 0 01.8572-2.71985l.60769-.29912a11.26939 11.26939 0 012.663.59375 7.35514 7.35514 0 011.74369.89028 2.4657 2.4657 0 01.95336 1.36813 9.63827 9.63827 0 00.603 1.71439c.262.53658.56 1.05543.85909 1.58386.28612.54295.58525 1.08744.90681 1.62354.61431 1.10268 1.31037 2.18351 2.02391 3.304zM413.96985 248.99878a18.2453 18.2453 0 01-3.91456-1.34734c-.61809-.30113-1.22838-.62636-1.83867-.96671-.5765-.37461-1.16151-.753-1.72361-1.16813-.56232-.41124-1.21207-.768-1.82709-1.1731a3.28115 3.28115 0 01-1.26831-1.68249 5.719 5.719 0 01-.28235-2.29314 6.297 6.297 0 01.857-2.71985l.60793-.29912a11.271 11.271 0 012.663.59375 7.353 7.353 0 011.74345.89027 2.465 2.465 0 01.9536 1.36814 9.62012 9.62012 0 00.603 1.71439c.26179.53658.55973 1.05543.85909 1.58385.28613.543.585 1.08745.90658 1.62355.61431 1.10268 1.3106 2.18351 2.02414 3.304zM413.158 236.81091a18.25417 18.25417 0 01-3.91456-1.34735c-.61809-.30113-1.22814-.62636-1.83844-.96671-.5765-.37461-1.16175-.753-1.7236-1.168-.56257-.41135-1.21208-.76812-1.82733-1.17321a3.28127 3.28127 0 01-1.26808-1.68238 5.7153 5.7153 0 01-.28234-2.29326 6.29739 6.29739 0 01.857-2.71985l.60769-.29912a11.266 11.266 0 012.663.59376 7.35049 7.35049 0 011.74369.89027 2.46594 2.46594 0 01.95359 1.36825 9.62287 9.62287 0 00.60273 1.7144c.262.53645.56 1.05531.85933 1.58373.28588.54295.585 1.08756.90657 1.62355.61431 1.10268 1.3106 2.18351 2.02391 3.304z"></path><path fill="#020202" d="M430.66076 279.21955a3.29206 3.29206 0 01-.542 2.03218c-.41607.60982-.8807 1.19046-1.24846 1.78078-.35807.6-.75489 1.171-1.15159 1.73235-.43545.55158-.871 1.08378-1.326 1.59673a18.06509 18.06509 0 01-2.68063 2.40974v.00969c-.14519.10656-.29026.21288-.43557.30975l-.30964-.21288-.1355-.09687-.10644-.07738c.00969-.07738.02906-.14519.03863-.22257v-.00968c.0775-.43557.155-.871.23238-1.29679.058-.32912.11612-.66782.16456-.99683.06769-.43545.1257-.871.18382-1.30658.09675-.60959.16445-1.229.22257-1.83868.0775-.6097.15487-1.2.19351-1.79047a9.54625 9.54625 0 00-.08707-1.8193 2.44531 2.44531 0 01.35807-1.6259 7.29563 7.29563 0 011.27752-1.49029 11.54859 11.54859 0 012.2355-1.55822l.67751.04844a6.40373 6.40373 0 011.829 2.18717A5.82653 5.82653 0 01430.66076 279.21955zM419.34056 274.58507c.23509-1.30742.46947-2.57159.61951-3.8249.09427-.618.16444-1.23523.223-1.84611.07655-.6025.15546-1.19554.19421-1.7913a9.631 9.631 0 00-.09238-1.815 2.46607 2.46607 0 01.36315-1.62757 7.35662 7.35662 0 011.27564-1.48509 11.27518 11.27518 0 012.23891-1.55951l.67574.04631a6.2964 6.2964 0 011.82473 2.19142 5.71861 5.71861 0 01.60864 2.229 3.28212 3.28212 0 01-.53539 2.03773c-.41561.60816-.8813 1.18467-1.24563 1.77854-.36244.59718-.76033 1.16931-1.15183 1.73459-.43545.54638-.87681 1.0787-1.33446 1.59189a18.25093 18.25093 0 01-3.111 2.73142zM415.81207 261.15393c.23509-1.3073.46923-2.57147.61927-3.82478.09427-.618.16444-1.23523.22328-1.84611.07631-.6025.15523-1.19554.194-1.7913a9.612 9.612 0 00-.09238-1.81505 2.46619 2.46619 0 01.36339-1.62756 7.34892 7.34892 0 011.27563-1.48509 11.27291 11.27291 0 012.23868-1.55951l.676.04631a6.29535 6.29535 0 011.82449 2.19142 5.71857 5.71857 0 01.60864 2.229 3.28189 3.28189 0 01-.53515 2.03773c-.41561.60816-.88154 1.18467-1.24587 1.77854-.36244.59718-.76032 1.16931-1.15159 1.73459-.43569.54638-.87681 1.0787-1.33447 1.59189a18.25964 18.25964 0 01-3.111 2.73142zM413.07722 248.242c.59965-1.18526 1.18608-2.32941 1.68887-3.48715.26746-.56516.51129-1.13647.7426-1.70482.24573-.55547.49121-1.101.69913-1.66076a9.6346 9.6346 0 00.43144-1.76542 2.46488 2.46488 0 01.81419-1.45532A7.35517 7.35517 0 01419.101 237.111a11.27363 11.27363 0 012.59167-.85282l.63416.2378a6.29944 6.29944 0 011.12064 2.62239 5.71565 5.71565 0 01-.05553 2.30992 3.28093 3.28093 0 01-1.0963 1.799c-.57249.46368-1.18373.88259-1.703 1.34722-.51838.46841-1.06347.90244-1.60028 1.332-.5739.39882-1.149.78241-1.73447 1.143a18.255 18.255 0 01-3.76311 1.726zM412.42439 236.545c.2351-1.30729.46924-2.57147.61951-3.82478.09427-.618.16445-1.23523.223-1.84611.07655-.6025.15523-1.19554.19422-1.7913a9.63086 9.63086 0 00-.09238-1.815 2.46586 2.46586 0 01.36315-1.62757 7.35623 7.35623 0 011.27563-1.48509 11.27071 11.27071 0 012.23892-1.55951l.67574.04619a6.30069 6.30069 0 011.82473 2.19154 5.71378 5.71378 0 01.6084 2.229 3.28059 3.28059 0 01-.53516 2.03773c-.4156.60816-.88129 1.18455-1.24563 1.77854-.36267.59718-.76056 1.16919-1.15182 1.73459-.43569.54638-.87681 1.0787-1.33447 1.59177a18.25479 18.25479 0 01-3.111 2.73154z"></path><path fill="#020202" d="M410.845 307.71688q-1.1704-4.67762-2.27515-9.36755l-2.17016-9.38733a1.09392 1.09392 0 011.02539-1.33887l.08667-.00256 12.09692-.37513 12.09717-.28039c8.0647-.1261 16.12964-.28479 24.19433-.31531 8.0647-.075 16.1294-.10168 24.1941-.00293 8.06494.07544 16.12964.36963 24.19433.57556l.08252.00208a1.493 1.493 0 011.45435 1.53052 1.58259 1.58259 0 01-.03125.26782c-2.06787 9.87707-4.21289 19.74048-6.08985 29.6521-1.88476 9.91015-3.59912 19.851-5.21606 29.809l-2.32105 14.95556-2.19067 14.97828c-1.4602 9.98535-3.06958 19.944-4.72314 29.89465a2.26316 2.26316 0 01-2.20508 1.89184l-.05078.00025-13.54859.15686c-4.51635.03906-9.03271.1344-13.54883.1272l-13.54882.01049-13.54883-.12854-.04028-.00036a2.43728 2.43728 0 01-2.37891-2.029c-1.00049-5.90186-1.89282-11.82276-2.84448-17.73316l-2.68653-17.76111q-1.30737-8.887-2.52295-17.79016c-.759-5.94446-1.59082-11.87622-2.26879-17.83508a.24245.24245 0 01.47656-.08435c1.4082 5.82971 2.66235 11.68677 3.98926 17.53088q1.91345 8.7799 3.73046 17.57678l3.56128 17.60682c1.13111 5.87878 2.32129 11.74719 3.40357 17.63464l-2.41919-2.0293 13.54883-.12854 13.54882.01062c4.51612-.0072 9.03248.08814 13.54883.12708l13.54859.157L480.742 407.515c1.85767-9.91614 3.75952-19.82459 5.81055-29.70606l6.1189-29.64954c1.95263-9.89843 3.8081-19.8142 5.49291-29.76049 1.69263-9.945 3.11719-19.938 4.6189-29.91736l1.50537 1.80017c-8.06469.20593-16.12939.50012-24.19433.57556-8.0647.09876-16.1294.072-24.1941-.00293-8.06469-.03052-16.12963-.18921-24.19433-.31531l-12.09717-.28039-12.09692-.37512 1.11157-1.34119 1.40112 9.53247q.68518 4.76916 1.2959 9.55225a.24229.24229 0 01-.47534.08984zM405.8954 214.93043c-1.11284-2.09042-3.9389-3.74527-4.63566-3.65821s-4.61629.34839-5.92264-1.142a3.288 3.288 0 00-.97746-.7452 4.06459 4.06459 0 00-3.65821.12593c-2.20655 1.14191-6.668.55158-8.3423-.60013-1.91617-1.32572-6.455 0-6.455 0-.58064-6.65815.08718-10.20023.97745-12.06808 2.2453 1.75172 6.6389 4.81948 10.26805 4.41309 3.9194-.43545 12.1939-10.19066 12.1939-10.19066 2.09042.3485 3.83233-.78395 3.13557-4.442s.3485-9.31965.3485-9.31965a21.2214 21.2214 0 001.92585-4.56785c1.5 5.884 1.471 22.42319.16445 25.2105-1.30647 2.78707-.784 7.87756-.784 7.87756C406.57279 208.9883 405.8954 214.93043 405.8954 214.93043zM284.61419 328.479c-.32889.18382-.6677.35819-1.0064.53232A1.232 1.232 0 01284.61419 328.479z"></path><path fill="#020202" d="M308.257,309.7333a70.29468,70.29468,0,0,1-7.88748,7.94548,91.36257,91.36257,0,0,1-8.91313,6.67753c-2.2453,1.45166-4.50974,2.84531-6.84222,4.12272a.39726.39726,0,0,1,.10656-.00969,1.45178,1.45178,0,1,1-1.113.542c-.58064.30976-1.17108.6-1.76129.89028l7.31629,26.12983s8.01318,0,12.1939-3.48384a9.41506,9.41506,0,0,0,1.60653-2.95175,30.35169,30.35169,0,0,0,1.07422-3.20338c.63876-2.15811,1.1419-4.36466,1.63547-6.5712.96778-4.413,1.80016-8.855,2.57443-13.31655.79352-4.45161,1.5-8.92283,2.2258-13.38424.43557-2.72906.842-5.46793,1.24835-8.197A50.07244,50.07244,0,0,1,308.257,309.7333ZM287.27557,335.205a1.45257,1.45257,0,0,1,0,2.90331A1.45257,1.45257,0,0,1,287.27557,335.205Zm2.09053,11.7295a1.45245,1.45245,0,0,1,0-2.90331A1.45245,1.45245,0,0,1,289.3661,346.9345Zm2.55482,7.43242a1.45245,1.45245,0,0,1,0-2.90331A1.45245,1.45245,0,0,1,291.92092,354.36692Z"></path><path fill="#020202" d="M315.06037,291.22951c-13.23917-11.61326-10.17129-42.36907-10.17129-42.36907-7.51949-.21288-27.22342,7.87779-27.22342,7.87779-.17413-.07749-.35807-.155-.53232-.24194a49.157,49.157,0,0,1-10.68412,3.08714c-1.81942.3967-3.68715.50326-5.53574.72583-.929.06769-1.86774.07737-2.79676.12569s-1.85816.04844-2.79687.02906c-1.85817-.01937-3.71627-.17413-5.57438-.329-1.84847-.23225-3.69689-.45482-5.51631-.84195a46.40047,46.40047,0,0,1-10.6068-3.30971c3.60983.79353,7.2196,1.38385,10.83906,1.8193a100.32475,100.32475,0,0,0,10.89712.72583,87.07034,87.07034,0,0,0,10.88737-.43545c3.64852-.29038,7.22934-.97746,10.88743-1.59673-16.21986-7.33578-33.40744-19.40387-33.40744-19.40387s-28.77183,26.96211-.9,77.82812c0,0,20.20708,18.11666,39.02062,14.98109a118.50008,118.50008,0,0,0,17.58433-13.2778,80.77794,80.77794,0,0,0,7.47117-7.98412,48.25771,48.25771,0,0,0,5.66156-9.19383l.00969-.00968a.94605.94605,0,0,1,1.79992.52263c-.59989,4.50016-1.30635,8.981-2.05155,13.46162-.7452,4.4809-1.59685,8.93263-2.49693,13.38436-.93871,4.45184-1.94523,8.88407-3.16463,13.26811-.61927,2.18717-1.30635,4.355-2.0903,6.49371a33.51255,33.51255,0,0,1-1.31628,3.16463,9.31026,9.31026,0,0,1-1.89679,2.81636v6.96791s47.0338,12.54229,64.10518,5.57438l2.09042-33.44625.79352-13.61661C344.96454,310.15918,328.29954,302.84277,315.06037,291.22951Zm-8.97126,64.76332a1.45245,1.45245,0,0,1,0-2.90331A1.45245,1.45245,0,0,1,306.08911,355.99283Zm8.59381,1.85816a1.45245,1.45245,0,0,1,0-2.90331A1.45245,1.45245,0,0,1,314.68292,357.851Zm10.21973,2.32256a1.45245,1.45245,0,0,1,0-2.90331A1.45245,1.45245,0,0,1,324.90265,360.17355Zm10.91649,1.39354a1.45245,1.45245,0,0,1,0-2.90332A1.45245,1.45245,0,0,1,335.81914,361.56709Zm11.14875.69688a1.45244,1.45244,0,0,1,0-2.90331A1.45244,1.45244,0,0,1,346.96789,362.264Zm11.84551,0a1.45245,1.45245,0,0,1,0-2.90331A1.45245,1.45245,0,0,1,358.8134,362.264Z"></path><path fill="#020202" d="M294.41145,248.15755a80.17356,80.17356,0,0,1-11.51062-4.50512c-1.8407-.9281-3.70643-1.81885-5.50574-2.82764-1.81384-.98572-3.573-2.06116-5.34986-3.10937-3.5166-2.15394-6.97717-4.40149-10.31018-6.82764-3.33618-2.42542-6.54162-5.00818-9.68615-7.68994l-.02161-.01831a.541.541,0,0,1-.06055-.76258.57081.57081,0,0,1,.09-.084c3.715-2.74719,7.48437-5.38306,11.21216-8.0874,3.71838-2.71534,7.4851-5.36182,11.23584-8.03809a255.17218,255.17218,0,0,1,23.30517-14.9054,128.05523,128.05523,0,0,1,25.31568-11.33654,54.51672,54.51672,0,0,1,13.70532-2.58936,27.03883,27.03883,0,0,1,6.98559.53308,17.137,17.137,0,0,1,6.36622,2.79712.09689.09689,0,0,1,.0205.13538.09861.09861,0,0,1-.12841.02527c-3.97681-2.353-8.69043-2.73194-13.16358-2.2948a59.86967,59.86967,0,0,0-13.2373,3.08972,179.69963,179.69963,0,0,0-24.94214,11.31592c-8.05261,4.37463-15.94739,9.07409-23.71106,13.99719a210.39071,210.39071,0,0,0-22.27088,16.229l.00782-.86462c3.23486,2.4895,6.6134,4.8219,9.96264,7.16369,3.36072,2.33082,6.7262,4.6532,10.16382,6.86719,1.73706,1.07532,3.45886,2.17969,5.23242,3.19312,1.73828,1.07763,3.52613,2.06372,5.30359,3.07629,3.60547,1.92432,7.26367,3.74976,11.05481,5.335a.097.097,0,0,1,.05445.12573A.09921.09921,0,0,1,294.41145,248.15755Z"></path><path fill="#020202" d="M366.76716 317.48531a122.47108 122.47108 0 01-34.34229-12.74524 107.032 107.032 0 01-15.19677-10.43152c-.59815-.48352-1.17554-.99108-1.76441-1.48559-.58227-.49426-1.17627-.98132-1.76709-1.568a19.43784 19.43784 0 01-2.90942-3.82129 36.22868 36.22868 0 01-3.54444-8.68006 89.73382 89.73382 0 01-2.835-18.25024 167.03473 167.03473 0 01-.12964-18.38684q.10254-2.29542.2649-4.58911c.09912-1.53455.31811-3.07264.48657-4.57862.3667-3.03235.72461-6.06518 1.14722-9.09057.4165-3.02613.85058-6.04993 1.32959-9.06739a67.39625 67.39625 0 011.85913-8.97021 38.24474 38.24474 0 00-.81568 4.49707c-.2019 1.51135-.3977 3.02307-.57153 4.538-.34644 3.03016-.64771 6.06568-.9314 9.10266l-.83423 9.11231c-.30224 3.04456-.43652 6.03686-.501 9.09387-.1189 6.0791-.00488 12.165.45532 18.21338a93.74145 93.74145 0 002.90918 17.854 35.98752 35.98752 0 003.366 8.22229 17.5576 17.5576 0 002.60254 3.45838c.48925.49206 1.07153.97961 1.65014 1.47522.57691.48987 1.14307.99341 1.729 1.47241a115.08583 115.08583 0 0014.81347 10.48071 121.266 121.266 0 0016.27954 8.11463A168.50194 168.50194 0 00366.76716 317.48531zM245.13715 237.97909a23.22416 23.22416 0 011.83326-3.78174 40.01965 40.01965 0 012.26684-3.46485 39.39151 39.39151 0 012.61194-3.2124 22.97528 22.97528 0 013.05017-2.892 22.97253 22.97253 0 01-1.83093 3.78345 39.34389 39.34389 0 01-2.26917 3.463 40.0172 40.0172 0 01-2.61426 3.21082A23.23728 23.23728 0 01245.13715 237.97909zM312.327 196.9902a14.84533 14.84533 0 012.89063-3.4607 17.33134 17.33134 0 013.70923-2.61877 12.22609 12.22609 0 014.404-1.41858 6.93747 6.93747 0 014.49975.87854 12.683 12.683 0 00-4.19677.60107 22.71073 22.71073 0 00-3.81006 1.65345c-1.24243.64636-2.47412 1.35742-3.70361 2.10815C314.889 195.48434 313.64948 196.24728 312.327 196.9902z"></path><path fill="#020202" d="M336.56257,190.97323A17.12507,17.12507,0,0,1,345.2,197.56209a31.856,31.856,0,0,1,4.68066,9.95752,52.52836,52.52836,0,0,1,1.77906,10.874q.31311,5.4624.49658,10.93017c.13159,3.646.1665,7.29578.144,10.95-.02954,3.64637-.14136,7.33143-.48852,10.97046a45.15316,45.15316,0,0,0,.47143,10.69287,60.90389,60.90389,0,0,0,2.5896,10.40845l-.07446-.14929a11.23375,11.23375,0,0,0,1.95166,1.9834c.75513.64026,1.54858,1.256,2.354,1.85852,1.61255,1.20471,3.27832,2.35766,4.957,3.4917q5.05554,3.37774,10.21289,6.63684c6.87476,4.33813,13.83912,8.546,20.83472,12.7008q5.24121,3.12617,10.54663,6.14283l2.65015,1.51233a11.00383,11.00383,0,0,0,1.29565.68591,2.93143,2.93143,0,0,0,2.62183-.32434c.35815-.24622.76343-.63672,1.1438-.94983l2.31933-1.988a24.37586,24.37586,0,0,1,2.48316-1.83557c.864-.57263,1.771-1.04358,2.61792-1.58118.86133-.53662,1.6914-1.09558,2.54053-1.67907a3.5663,3.5663,0,0,1,3.198-.42334,2.15271,2.15271,0,0,1,1.29077,1.16162,2.63221,2.63221,0,0,1,.0254,1.71179,3.949,3.949,0,0,1-.79,1.45251c-.36914.42981-.75855.73426-1.12549,1.08973l-4.48218,4.14392.06641-.08216a1.80178,1.80178,0,0,0,.196,2.39942,6.43477,6.43477,0,0,0,2.57251,1.32983,12.99025,12.99025,0,0,0,2.929.55493,17.242,17.242,0,0,0,2.98779-.42443c4.02295-.87146,8.00049-2.08,11.95532-3.30506l2.96143-.94385c.51342-.16027.938-.32019,1.52295-.48425a4.13661,4.13661,0,0,1,1.82251-.06921,3.11594,3.11594,0,0,1,.93017.3385,1.88124,1.88124,0,0,1,.78613.85693,2.6774,2.6774,0,0,1-.06811,2.02381,5.75227,5.75227,0,0,1-2.18433,2.71679,6.72369,6.72369,0,0,1-1.552.76892l-1.46777.51917-2.93579,1.03833-5.87183,2.07678.14063-.06457a3.50659,3.50659,0,0,0-.62867.46252.592.592,0,0,0-.2.29382c-.00488-.01513.00952.07679.16724.22034a2.309,2.309,0,0,0,.57666.36328l-.36475-.06177,9.75733-.63232,4.87915-.30591a5.24116,5.24116,0,0,1,2.854.60327,4.05046,4.05046,0,0,1,1.21973,1.01123,2.39654,2.39654,0,0,1,.49658,1.84473,3.2746,3.2746,0,0,1-.72876,1.51782,5.17622,5.17622,0,0,1-1.08936,1.00757,5.95032,5.95032,0,0,1-2.6958.98975l-4.89453.43713-4.86963.43152-1.21753.10779-.60864.054a3.52435,3.52435,0,0,0-.48218.07031,2.59824,2.59824,0,0,0-.81884.32166,1.76371,1.76371,0,0,0-.53662.50317.3988.3988,0,0,0-.03345.36658,1.01936,1.01936,0,0,0,.36328.484,1.38143,1.38143,0,0,0,.30933.17432,2.21214,2.21214,0,0,0,.425.12024l1.19117.274,4.76367,1.09912,2.37915.56055c.41943.10584.73584.15747,1.26367.31494a4.63551,4.63551,0,0,1,1.39014.71045,3.84409,3.84409,0,0,1,1.08349,1.26758,2.44123,2.44123,0,0,1,.13306,2.00171,3.37642,3.37642,0,0,1-2.67676,2.02807,7.71034,7.71034,0,0,1-1.4209.02637c-.42871-.01843-.84472-.053-1.26123-.08691q-1.24108-.11389-2.46118-.26184l-4.8562-.611-2.40381-.27613a12.28371,12.28371,0,0,0-2.20776-.09167,1.55392,1.55392,0,0,0-.68091.23034c-.13965.12513-.10156.1001-.10522.1344-.01368.24683.50463.808.823.84253a.45317.45317,0,0,1,.14136.03931l.06519.03088,6.57934,3.09717-.20361-.06921a3.85161,3.85161,0,0,1,2.72632,2.03528,2.40265,2.40265,0,0,1-.03858,2.09668,3.66421,3.66421,0,0,1-1.18432,1.31652,4.397,4.397,0,0,1-3.19068.70435c-.5874-.10559-.94848-.24548-1.38134-.3595l-1.26465-.36279-10.11768-2.90186-1.26465-.36279-.63232-.1814-.1582-.04528-.03931-.01136-.01978-.00573c.03223.007-.10009-.02356.06714.01416l-.08862-.01587-.35254-.07068a11.84069,11.84069,0,0,1-2.6228-.96265l-4.78711-2.21289c-3.1814-1.49353-6.33863-3.03137-9.48706-4.57568a158.09945,158.09945,0,0,0-19.24634-8.3241l-19.83228-7.08008a.0967.0967,0,0,1-.05859-.12365.09785.09785,0,0,1,.12183-.05921l20.042,6.42993a159.17442,159.17442,0,0,1,19.551,7.93933l9.55249,4.40259,4.79664,2.13806a10.25322,10.25322,0,0,0,2.31372.82422l.293.05445.07349.0122.1665.04041.1587.04321.63476.17261,1.26953.34534,10.1565,2.76281,1.26953.34546c.415.10767.887.2555,1.16553.29468a2.52368,2.52368,0,0,0,1.82128-.41614,1.8346,1.8346,0,0,0,.562-.61706.44571.44571,0,0,0-.00122-.44117,1.97226,1.97226,0,0,0-1.39038-.94555.854.854,0,0,1-.18677-.061l-.01734-.0083-6.58911-3.07654.20606.07a3.09892,3.09892,0,0,1-1.53443-.89111,2.90663,2.90663,0,0,1-.82446-1.62805,2.01557,2.01557,0,0,1,.19482-1.15772,2.27118,2.27118,0,0,1,.69141-.807,3.4586,3.4586,0,0,1,1.58911-.60412,13.23087,13.23087,0,0,1,2.6687.07507l2.45386.27405,4.84692.59436q1.20667.14245,2.40064.248c.39575.031.792.0625,1.17725.07763a6.45456,6.45456,0,0,0,1.01928-.00781,1.3864,1.3864,0,0,0,1.08643-.74243.38325.38325,0,0,0-.0437-.3595,1.87682,1.87682,0,0,0-.50147-.56738,2.59994,2.59994,0,0,0-.77929-.38977c-.25245-.079-.73853-.17822-1.10962-.26868l-2.38086-.55347-4.7566-1.129-1.189-.28309a4.199,4.199,0,0,1-.74414-.22863,3.37382,3.37382,0,0,1-.74732-.43323,3.02089,3.02089,0,0,1-1.04687-1.46643,2.42465,2.42465,0,0,1,.22192-1.98792,3.64435,3.64435,0,0,1,1.20948-1.17627,4.55825,4.55825,0,0,1,1.44653-.56359,5.48691,5.48691,0,0,1,.72705-.10193l.60913-.04932,1.21826-.09851,4.87281-.39417,4.84765-.39477a4.09019,4.09019,0,0,0,1.85523-.65772,2.5232,2.5232,0,0,0,1.05322-1.285.53749.53749,0,0,0-.13257-.44275,2.30274,2.30274,0,0,0-.65308-.5343,3.44111,3.44111,0,0,0-1.86523-.39612l-4.88135.26831-9.76416.516-.032.00171a.71752.71752,0,0,1-.333-.0636,3.83494,3.83494,0,0,1-1.05761-.68921,1.94114,1.94114,0,0,1-.6709-1.47424,2.07926,2.07926,0,0,1,.69922-1.38464,5.04267,5.04267,0,0,1,.94458-.686.82078.82078,0,0,1,.14086-.06469l5.89917-1.99781,2.94947-.9989,1.47461-.49939a5.27994,5.27994,0,0,0,1.24414-.58166,4.367,4.367,0,0,0,1.70361-2.02124,1.45689,1.45689,0,0,0,.12329-1.00537c-.05469-.19312-.35571-.37647-.77246-.46924a2.86785,2.86785,0,0,0-1.2644.02942c-.417.10608-.97266.29187-1.45264.43176l-2.99146.88684c-4.00048,1.14514-7.99951,2.28711-12.10986,3.1029a17.84478,17.84478,0,0,1-3.17773.38709,13.55427,13.55427,0,0,1-3.165-.64746,7.14011,7.14011,0,0,1-2.87061-1.57507,2.47636,2.47636,0,0,1-.748-1.61988,3.02138,3.02138,0,0,1,.47631-1.67737.379.379,0,0,1,.06665-.08252l4.509-4.11474c.3667-.34815.78052-.67859,1.0747-1.02246a3.28156,3.28156,0,0,0,.66724-1.20337,1.99811,1.99811,0,0,0,.00708-1.28345,1.51069,1.51069,0,0,0-.91968-.81116,2.93925,2.93925,0,0,0-2.63208.34583c-.831.56348-1.69311,1.13586-2.5625,1.66956-.87426.54833-1.7832,1.00537-2.6145,1.56091a23.74492,23.74492,0,0,0-2.40649,1.81177l-2.2981,2.00451c-.40259.33557-.72241.66675-1.19629,1.00708a3.59492,3.59492,0,0,1-3.2124.42334,11.12724,11.12724,0,0,1-1.40771-.72241l-2.6648-1.49-10.6438-5.98779C387.567,295.64425,380.50642,291.586,373.524,287.382c-3.48925-2.10522-6.96679-4.23523-10.36547-6.50317-1.70093-1.13233-3.39063-2.28467-5.04664-3.5044-.82763-.61084-1.64721-1.23718-2.44873-1.90735a12.3087,12.3087,0,0,1-2.3081-2.36206.58223.58223,0,0,1-.06787-.13l-.00708-.01953a54.816,54.816,0,0,1-2.67334-10.76441,46.76588,46.76588,0,0,1-.39307-11.08789,198.41072,198.41072,0,0,0,.55762-21.74743c-.21-7.26795.0852-14.60718-1.79566-21.59058a31.47267,31.47267,0,0,0-4.26318-9.85779,20.80087,20.80087,0,0,0-3.57373-4.0227,13.71972,13.71972,0,0,0-4.62012-2.723l-.01245-.0039a.09651.09651,0,0,1,.0564-.18457Z"></path><path fill="#020202" d="M304.88679 251.68868c3.92895.04663 7.832.16126 11.73169.25293 3.89868.07837 7.79.16834 11.67431.13367 3.88355-.00684 7.7605-.13135 11.60987-.46826a49.517 49.517 0 005.71533-.85144 16.4886 16.4886 0 005.39892-2.02832 13.79086 13.79086 0 01-5.1372 2.942 36.219 36.219 0 01-5.77954 1.43518 76.10068 76.10068 0 01-11.79786.90515c-3.93676-.00366-7.86572-.17785-11.77368-.566A98.34971 98.34971 0 01304.88679 251.68868zM363.43525 156.518s-12.37807 24.62011-17.72017 26.71049-4.18077 8.68882-1.39359 10.26717 12.77459 7.15272 13.70365 8.54631 17.77232 10.21967 17.82837 7.66475c.04729-2.15571 1.66687-12.455-.4441-18.65544a29.29322 29.29322 0 01-1.72055-11.5735c.1284-1.73765.41872-3.043 1.00131-3.043 0 0-5.226-5.57437 0-12.54232 0 0 6.18406-6.097 7.57765 5.05176 0 0 19.16188-1.56779 24.21364-6.79375 0 0-5.48726-22.90716-24.562-19.77158C381.91942 142.37887 368.29374 144.52733 363.43525 156.518z"></path><path fill="none" stroke="#020202" stroke-linecap="round" stroke-linejoin="round" stroke-width=".968" d="M405.818,162.75785a28.28282,28.28282,0,0,1-1.06455,9.96805v.00967a21.21646,21.21646,0,0,1-1.92587,4.56789s-1.04519,5.66146-.3484,9.31964-1.04519,4.79047-3.13558,4.44207c0,0-8.27444,9.75514-12.19392,10.19063-3.62914.40647-8.02282-2.66137-10.26806-4.413-.18387-.13548-.34839-.271-.49356-.3871"></path><path fill="#020202" d="M395.85533 179.9768a1.45252 1.45252 0 000-2.90331 1.45252 1.45252 0 000 2.90331zM375.12687 173.183a1.45252 1.45252 0 000-2.90331 1.45252 1.45252 0 000 2.90331zM390.9405 171.73141a9.43061 9.43061 0 012.78637.337 12.65113 12.65113 0 012.6316 1.01795 10.722 10.722 0 012.31665 1.63257 7.83557 7.83557 0 011.70947 2.2384c-.74634-.57959-1.42651-1.15845-2.18115-1.64868a22.97408 22.97408 0 00-2.29615-1.3667A50.12338 50.12338 0 00390.9405 171.73141zM389.93269 191.06747a9.0412 9.0412 0 011.88769 1.74816c.26123.32007.52441.62916.76953.95618a7.48185 7.48185 0 00.82666.95386 1.97535 1.97535 0 01-1.32983-.39063 4.82874 4.82874 0 01-1.00269-.89245A4.96828 4.96828 0 01389.93269 191.06747zM396.20368 185.75436a3.75532 3.75532 0 01-.072 1.19311c-.06543.314-.16577.51428-.27637 1.07153a.86338.86338 0 01-.5935-.5094 1.28919 1.28919 0 01-.07422-.77221A1.24916 1.24916 0 01396.20368 185.75436zM375.85358 209.70675c-.21948 4.54761-.64941 9.05737-1.0393 13.5636-.229 2.24865-.4021 4.50183-.59888 6.74133-.096 1.12061-.16724 2.2406-.21411 3.35-.011.548-.06836 1.11669-.0481 1.64294l.00855.79736.07593.67676.02758.19641c.03638 1.07227.13575 2.18384.2295 3.27405.10522 1.09375.25171 2.181.44458 3.25452a21.49008 21.49008 0 00.7622 3.14428 6.69605 6.69605 0 001.45118 2.6604l.05322.05164a.52266.52266 0 01-.26929.88928 19.23976 19.23976 0 01-3.66894.30933 10.42892 10.42892 0 01-1.83155-.18189 4.63509 4.63509 0 01-1.70141-.65271 4.72237 4.72237 0 001.74023.3114 10.57475 10.57475 0 001.76-.1073 22.88332 22.88332 0 003.44092-.72912l-.21607.94067a7.26148 7.26148 0 01-2.0686-2.98633 21.04207 21.04207 0 01-1.06592-3.31347 39.50836 39.50836 0 01-.9458-6.79968l.02759.196-.14087-1.00842-.02563-.90088c-.02637-.60657.0144-1.16907.03027-1.75318.06592-1.15271.15649-2.29309.27075-3.428.20191-2.27356.53711-4.5232.85669-6.77173C373.90412 218.58541 374.72736 214.11983 375.85358 209.70675zM352.54816 198.24532a7.54341 7.54341 0 01-1.58325 3.24561 9.547 9.547 0 01-2.68457 2.39648 15.261 15.261 0 011.92383-2.99353A29.18629 29.18629 0 01352.54816 198.24532zM305.137 238.96908l-.22778.20959.00683-.00574a40.82374 40.82374 0 01-5.61425 6.17518 48.31445 48.31445 0 01-6.67176 5.06738 46.83392 46.83392 0 01-7.4685 3.80237 37.67759 37.67759 0 01-8.03186 2.27758c2.51355-1.20141 4.98791-2.3739 7.40454-3.64233 2.40954-1.2782 4.77783-2.61047 7.066-4.074 2.30566-1.43531 4.53235-2.99549 6.73034-4.61255 2.19336-1.62635 4.33277-3.33728 6.52393-5.05274l.00732-.006zM262.59528 327.15462a12.09908 12.09908 0 00-2.62378 6.33667 15.5317 15.5317 0 00.02564 3.42371c.0376.56921.19409 1.1283.28308 1.69043l.44177 1.66016-.01648-.04993c1.61609 4.15539 3.12635 8.3418 4.41785 12.6123.64343 2.13562 1.18774 4.30335 1.68481 6.48633.24341 1.09351.46741 2.19275.64319 3.308.08753.55761.16455 1.1184.20459 1.69262a5.77333 5.77333 0 01-.07971 1.804l-.036-.28382a47.6365 47.6365 0 004.70239 6.94263 43.89849 43.89849 0 005.84021 5.99915 31.57891 31.57891 0 006.90015 4.51648 17.49186 17.49186 0 007.76037 1.77417l.09571.00341c.25268-.03247.52844-.22778.57043-.93383a5.2752 5.2752 0 00-.06323-1.083c-.08838-.389-.16882-.78186-.28516-1.17578a31.25886 31.25886 0 00-2.00341-4.71448c-.80591-1.54761-1.67408-3.05835-2.5503-4.59876l-1.32373-2.3623-1.18249-2.44214a32.382 32.382 0 01-2.97644-10.44751 15.36177 15.36177 0 01.46472-5.46387 8.66437 8.66437 0 011.187-2.49231 5.46666 5.46666 0 012.10779-1.73645.0968.0968 0 01.12744.05018.10083.10083 0 01-.04187.12341 5.54059 5.54059 0 00-1.76 1.84534 8.00942 8.00942 0 00-.84265 2.40771 15.10952 15.10952 0 00-.0116 5.12231 34.565 34.565 0 003.39807 9.79932l1.241 2.305 1.332 2.259 1.37988 2.30981c.46582.76953.85974 1.58972 1.29261 2.3822a27.56479 27.56479 0 012.08752 5.11182 8.46294 8.46294 0 01.3418 2.99414 3.16247 3.16247 0 01-.67249 1.74194 2.39875 2.39875 0 01-.87219.65247 2.42961 2.42961 0 01-1.10535.196l.09534.00329a17.69987 17.69987 0 01-4.41064-.60034 20.08286 20.08286 0 01-4.07-1.64526 23.25351 23.25351 0 01-3.64075-2.34766 36.64 36.64 0 01-3.24487-2.8075 62.07768 62.07768 0 01-5.64172-6.36706 82.93616 82.93616 0 01-4.88709-6.9491.33613.33613 0 01-.04407-.24585l.00806-.03845a4.822 4.822 0 00-.05981-1.51245c-.07813-.53015-.19336-1.0647-.31946-1.59644-.25208-1.06457-.55664-2.1239-.8739-3.17956-.6388-2.11206-1.37757-4.19873-2.06922-6.3l-4.2074-12.60608-.01513-.04565-.00134-.00476c-.13306-.60389-.28125-1.20313-.38416-1.81153-.06165-.61719-.18738-1.2229-.19238-1.84485a14.77212 14.77212 0 01.25073-3.69311 12.71333 12.71333 0 011.261-3.45508 9.75834 9.75834 0 012.23425-2.863.09655.09655 0 01.13611.136z"></path><path fill="#020202" d="M247.268 343.48137c1.3525-3.30321 4.54488-6.485 12.02238-4.86745 0 0 8.84817 21.3684 7.91911 27.4073a20.11306 20.11306 0 0016.357-9.4809s8.95994 8.0873 5.94049 15.75206c0 0-5.58145 6.23983-12.662 6.02323 0 0 9.178 7.91268 15.91371 7.68041 0 0 7.20022 5.57437-.92906 6.50343a116.36564 116.36564 0 01-16.131.25573 10.4721 10.4721 0 01-7.903-4.11107c-4.08338-5.36565-11.66074-16.73259-20.29516-36.56289A11.09538 11.09538 0 01247.268 343.48137zM304.98322 360.4006a47.11727 47.11727 0 01.25147 6.88867 27.02967 27.02967 0 01-.32129 3.462 16.132 16.132 0 01-.87305 3.43055 9.62588 9.62588 0 01-.81518 1.65307c-.19458.25464-.40479.50415-.61158.75452-.20605.26416-.34472.36108-.49072.59277a8.59519 8.59519 0 00-1.1958 2.88147 18.40333 18.40333 0 00-.26025 6.53076 11.44926 11.44926 0 002.24463 5.84632 3.98308 3.98308 0 001.08471.90478 3.37335 3.37335 0 00.62036.27661c.10572.03968.22.05139.32886.08069l.39941.0907a14.67186 14.67186 0 013.38135 1.238 24.15868 24.15868 0 006.406 1.75036l1.67529.2472 1.69238.16833c1.12915.11475 2.26075.22131 3.39966.265a126.103 126.103 0 0013.68286.026c2.28125-.09046 4.56031-.26429 6.83985-.39661 2.27832-.1532 4.552-.3927 6.8269-.59692 9.094-.88807 18.17456-1.89454 27.25806-2.86719l-.85571.80932c-.01123.05616-.00464-.09545-.02393-.17248a2.04247 2.04247 0 00-.06421-.30249 3.40578 3.40578 0 00-.25122-.64563 4.08474 4.08474 0 00-.375-.64258 4.17241 4.17241 0 00-.46411-.6189 12.4652 12.4652 0 00-1.10767-1.15612c-.436-.3385-.82959-.71363-1.29345-1.02808a30.61263 30.61263 0 00-5.93287-3.293c-1.03051-.49866-2.12646-.87768-3.187-1.32348l-3.27343-1.15418c-2.23487-.73059-4.44947-1.52649-6.657-2.34668a85.48779 85.48779 0 01-12.91089-5.81128 28.59822 28.59822 0 01-5.76953-4.18652 10.468 10.468 0 01-3.34643-6.1969.09668.09668 0 01.08667-.106.10061.10061 0 01.10522.08008 10.32878 10.32878 0 003.67139 5.65991 30.08914 30.08914 0 005.81811 3.71009 102.0766 102.0766 0 0012.93506 5.18859c2.20874.748 4.44336 1.42591 6.66773 2.1366l3.37378 1.1311c1.10644.44422 2.23657.81519 3.32446 1.32178a32.58326 32.58326 0 016.3208 3.53723c.50757.34241.96045.78711 1.43945 1.17884a14.40555 14.40555 0 011.29492 1.40429 5.81256 5.81256 0 01.57227.79712 5.96422 5.96422 0 01.48975.88416 5.31344 5.31344 0 01.35937.99756 3.84251 3.84251 0 01.10327.55883 2.707 2.707 0 01.0044.70337.91108.91108 0 01-.82227.80664l-.03369.00281c-9.113.82886-18.23413 1.60181-27.38379 1.97009-2.28613.10486-4.56909.24475-6.85791.29847-2.28638.08874-4.56933.2312-6.85742.28344-4.5752.11438-9.14624.31031-13.73828.27271-1.14771.01819-2.29688-.027-3.44751-.08106l-1.72705-.07776-1.72876-.16272a24.28036 24.28036 0 01-6.86084-1.52673 13.5666 13.5666 0 00-3.06372-1.04675l-.4375-.09534c-.16748-.04053-.3396-.06616-.50244-.12292a5.09839 5.09839 0 01-.9458-.4115 5.70749 5.70749 0 01-1.54517-1.2638 9.45836 9.45836 0 01-1.79688-3.27661 17.203 17.203 0 01-.75634-3.5177 19.92233 19.92233 0 01.43432-7.09155 8.85536 8.85536 0 011.55616-3.34753c.1687-.24964.49-.51038.63793-.69507l.498-.55152a8.45135 8.45135 0 00.76489-1.38208 23.369 23.369 0 001.49952-6.49621 59.93869 59.93869 0 00.34326-6.81543.09693.09693 0 01.09424-.09949A.09958.09958 0 01304.98322 360.4006z"></path><path fill="#020202" d="M311.57209 372.98922a9.875 9.875 0 00.84473 4.43713 6.02322 6.02322 0 001.28247 1.76355 14.78441 14.78441 0 001.82129 1.464 5.211 5.211 0 01-2.30079-.88037 4.84611 4.84611 0 01-1.67065-1.91992 5.467 5.467 0 01-.55029-2.47241A5.23 5.23 0 01311.57209 372.98922zM302.16835 392.91236s-5.50026 1.90974-2.46129 11.89714c0 0-.445 3.71624 12.7941 3.01945l66.66011.087s4.93426-10.90628-5.31375-13.04527l-16.7345 1.54886s4.16383-9.959 3.0025-13.21073a15.42327 15.42327 0 00-17.62768-6.69762s.688 15.98019-11.62991 21.44244C330.85793 397.95366 312.73941 397.04152 302.16835 392.91236z"></path><path fill="#fff" d="M284.61419,328.479c-.32889.18382-.6677.35819-1.0064.53232A1.232,1.232,0,0,1,284.61419,328.479Z"></path><path fill="#020202" d="M368.34626 207.85787a62.80521 62.80521 0 01-.83472 8.643c-.44555 2.85974-1.07324 5.68859-1.80322 8.49609a59.31506 59.31506 0 01-2.88135 8.235l-.95459 1.97632c-.35937.6416-.74389 1.27137-1.11645 1.89991-.38892.62072-.87451 1.19372-1.31446 1.77282a15.49766 15.49766 0 01-1.58154 1.51843l.5874-.91589a5.90771 5.90771 0 00.55323-.90832c.2976-.655.66381-1.25208.91894-1.91809l.7959-1.96949.70606-2.00818q1.31065-4.05486 2.41992-8.189l2.19775-8.29858C366.76643 213.41537 367.50007 210.63607 368.34626 207.85787zM374.22639 249.83724c.72143 2.01282 1.37524 4.04443 2.04834 6.07056.68286 2.02368 1.31518 4.06116 1.95678 6.09607 1.2688 4.07373 2.48291 8.16272 3.66919 12.25915l-.22241-.39074c2.10742 2.12512 4.29736 4.204 6.47778 6.271q3.28528 3.09228 6.66675 6.07068c2.26343 1.97388 4.56616 3.89893 6.9646 5.69507a26.0075 26.0075 0 007.79712 4.38013 14.09582 14.09582 0 01-4.37427-1.30091 33.33476 33.33476 0 01-4.04541-2.1582 73.33339 73.33339 0 01-7.43115-5.31592c-2.37524-1.90124-4.65942-3.907-6.88476-5.97253-2.23316-2.06165-4.37647-4.19886-6.48707-6.40235l-.00952-.01a.879.879 0 01-.21313-.3811c-1.07813-4.12634-2.12866-8.26025-3.12451-12.40918-.49048-2.07654-.99048-4.15039-1.44019-6.23828C375.1153 254.01559 374.63679 251.93575 374.22639 249.83724zM232.15668 259.52254q-3.7747 8.66822-7.76843 17.23914-3.99152 8.5719-8.28845 17.00439c-2.89343 5.60669-5.82678 11.19983-9.15063 16.6012a73.35324 73.35324 0 01-5.4065 7.89185 20.95681 20.95681 0 01-1.60889 1.83581l-.87072.88c-.30616.28332-.66077.53662-.99036.8042l-.50708.39233-.58752.32654-.5907.32019a5.56989 5.56989 0 01-.65772.22693c-.22412.06518-.44555.14489-.673.19214l-.69653.0708a7.59845 7.59845 0 01-1.33631-.0221.93392.93392 0 01.02527-1.86767l.00647.00012.10107.00256a92.252 92.252 0 0012.90247-.49951c2.14441-.22327 4.26111-.59448 6.36621-1.01209a34.64328 34.64328 0 006.09693-1.90563 9.90771 9.90771 0 001.434-.67139c.45959-.254.93676-.48657 1.38513-.75769l2.60681-1.90845a13.86426 13.86426 0 016.19092-2.5282 17.60607 17.60607 0 016.60339.35742 21.76583 21.76583 0 016.0791 2.42749 23.57909 23.57909 0 00-6.16675-2.00293 16.99479 16.99479 0 00-6.38049-.00378 13.63036 13.63036 0 00-5.66882 2.62769l-2.59 2.05383c-.4696.31067-.96387.57825-1.44641.86914-.24414.13953-.48315.29236-.73206.42078l-.76428.34338a44.41057 44.41057 0 01-12.80969 3.361c-2.18384.29541-4.37732.4773-6.57288.5968-2.20068.12256-4.38391.16712-6.613.101l.13281-1.865c2.74158.42468 4.92029-2.0636 6.8407-4.38062.49768-.57861.95154-1.20471 1.3988-1.83984.44861-.63294.92139-1.2439 1.35083-1.89441.84216-1.3147 1.73767-2.58789 2.537-3.9364 3.28589-5.32691 6.31824-10.8407 9.29761-16.37683 2.98962-5.5337 5.899-11.11634 8.79919-16.70594l4.36084-8.382C229.23249 265.106 230.67792 262.30672 232.15668 259.52254z"></path><path fill="#020202" d="M374.9495,287.42025a245.73291,245.73291,0,0,1-20.87287-14.76964c-4.50134-10.35485-2.52005-33.50172-2.52005-33.50172S381.42194,238.0847,374.9495,287.42025Z"></path><polygon points="489.53 370.029 422.057 370.029 424.312 381.711 487.275 381.711 489.53 370.029"></polygon><path d="M430.6988 406.12948l5.07544-10.93543a.16714.16714 0 01.22217-.08142.17626.17626 0 01.08471.08887l4.7 10.81641-.53393.01721 3.70459-10.89087a.37217.37217 0 01.47241-.23255.38427.38427 0 01.22974.22486l4.10522 10.84387-.79687-.00147 4.07446-10.87255a.4544.4544 0 01.585-.266.46151.46151 0 01.24854.22558l5.37915 10.85-.89624.078 3.20068-10.85425a.454.454 0 01.56226-.30981.461.461 0 01.29345.2633l4.47119 10.87366-.79541.02881 3.65406-10.84534a.3695.3695 0 01.46533-.23791.38225.38225 0 01.22607.20593l4.67578 10.89856-.5188.01318 4.2273-10.8197a.15933.15933 0 01.2041-.09558.168.168 0 01.09937.10791l2.97705 10.90674-3.28467-10.81812.30347.01245-4.0022 10.90491a.27916.27916 0 01-.5166.01856l-.00244-.00538-4.84131-10.82617.69116-.032L465.89143 406.263a.42413.42413 0 01-.53467.27149.43339.43339 0 01-.26074-.24268l-4.52564-10.851.85547-.04639-3.146 10.87024a.48235.48235 0 01-.89648.07813l-5.3291-10.87476.83325-.0404-4.12891 10.852a.425.425 0 01-.54663.25.435.435 0 01-.25049-.25147l-4.00683-10.88061.7019-.00769-3.86889 10.83361-.00147.00476a.2853.2853 0 01-.53247.01246l-4.48291-10.90821.30689.00757zM421.18073 364.81979l6.13526-15.55774a.2137.2137 0 01.39428-.00818l.00244.00586q3.3816 7.69134 6.69336 15.41223l-.70752.02283 5.28638-15.51417a.49328.49328 0 01.92749-.01757l.00269.00732 5.84424 15.452-1.05591-.002 5.8081-15.49a.60174.60174 0 01.77491-.35217.60869.60869 0 01.3291.29871l7.66186 15.45984-1.1875.10351 4.55738-15.4657a.60141.60141 0 01.74487-.4104.61112.61112 0 01.38891.34888l6.37281 15.49121-1.05371.03821 5.20117-15.45374.00171-.00537a.48974.48974 0 01.91406-.03711l6.67041 15.5243-.6875.01745q2.97-7.72357 6.02051-15.4165l.002-.005a.202.202 0 01.262-.11377.2045.2045 0 01.12427.14942l3.00464 15.51758-3.40161-15.43531.38794.03064q-2.82716 7.77759-5.70484 15.53613a.37075.37075 0 01-.477.21766.38306.38306 0 01-.21069-.2002l-6.8894-15.42834.91577-.04248-5.06519 15.4989a.56177.56177 0 01-.70849.35937.5738.5738 0 01-.34546-.32129l-6.44532-15.4613 1.13379-.06152L459.3177 364.999a.63912.63912 0 01-1.18775.1034l-7.59521-15.49268 1.104-.05346-5.88013 15.46264a.56311.56311 0 01-.72436.33093.57374.57374 0 01-.33154-.33288l-5.71412-15.50061.93018-.01026-5.50391 15.43836a.37847.37847 0 01-.48095.23535.39052.39052 0 01-.22657-.21252q-3.2307-7.75507-6.39013-15.54029l.39648-.00232zM430.87051 388.80225a1.45252 1.45252 0 000-2.90331 1.45252 1.45252 0 000 2.90331zM440.54823 388.80225a1.45252 1.45252 0 000-2.90331 1.45252 1.45252 0 000 2.90331zM450.22594 388.80225a1.45252 1.45252 0 000-2.90331 1.45252 1.45252 0 000 2.90331zM459.90366 388.80225a1.45252 1.45252 0 000-2.90331 1.45252 1.45252 0 000 2.90331zM469.58138 388.80225a1.45252 1.45252 0 000-2.90331 1.45252 1.45252 0 000 2.90331zM479.25909 388.80225a1.45252 1.45252 0 000-2.90331 1.45252 1.45252 0 000 2.90331z"></path><path fill="#fff" d="M284.61419,328.479c-.32889.18382-.6677.35819-1.0064.53232A1.232,1.232,0,0,1,284.61419,328.479Z"></path><path fill="#020202" d="M309.57 249.15281a1.45252 1.45252 0 000-2.90331 1.45252 1.45252 0 000 2.90331zM316.77024 249.38508a1.45253 1.45253 0 000-2.90332 1.45253 1.45253 0 000 2.90332zM323.50593 250.08187a1.45252 1.45252 0 000-2.90331 1.45252 1.45252 0 000 2.90331zM330.24162 250.31414a1.45253 1.45253 0 000-2.90332 1.45253 1.45253 0 000 2.90332zM337.67411 249.61734a1.45252 1.45252 0 000-2.90331 1.45252 1.45252 0 000 2.90331zM345.10659 248.456a1.45252 1.45252 0 000-2.90331 1.45252 1.45252 0 000 2.90331zM371.12029 247.75922a1.45253 1.45253 0 000-2.90332 1.45253 1.45253 0 000 2.90332zM308.64094 240.59554c1.60376.165 3.20166.34546 4.80566.47156 1.59937.1582 3.2.30249 4.80249.40662 3.20239.22412 6.40381.46191 9.60962.48205a94.68352 94.68352 0 009.60132-.157c.80225-.02087 1.59424-.1272 2.39136-.20105.79736-.07556 1.59546-.15234 2.38183-.29858.78858-.13013 1.594-.20081 2.37451-.38074q1.16969-.27393 2.35694-.519a39.06857 39.06857 0 01-9.43823 2.14087c-.8042.08716-1.61011.16907-2.41724.23157l-2.42383.10669q-2.42358.08442-4.84912.0437c-3.23071-.10168-6.45459-.32654-9.65894-.71094A90.142 90.142 0 01308.64094 240.59554zM259.4588 224.3585a1.45252 1.45252 0 000-2.90331 1.45252 1.45252 0 000 2.90331zM265.90416 228.71347a1.45252 1.45252 0 000-2.90331 1.45252 1.45252 0 000 2.90331zM272.69792 233.591a1.45252 1.45252 0 000-2.90331 1.45252 1.45252 0 000 2.90331zM278.96908 237.946a1.45253 1.45253 0 000-2.90332 1.45253 1.45253 0 000 2.90332zM286.11123 241.95259a1.45253 1.45253 0 000-2.90332 1.45253 1.45253 0 000 2.90332zM293.42759 245.95916a1.45252 1.45252 0 000-2.90331 1.45252 1.45252 0 000 2.90331zM204.35389 320.226a1.45253 1.45253 0 000-2.90332 1.45253 1.45253 0 000 2.90332zM211.55411 318.36784a1.45253 1.45253 0 000-2.90332 1.45253 1.45253 0 000 2.90332zM218.75433 315.58065a1.45252 1.45252 0 000-2.90331 1.45252 1.45252 0 000 2.90331zM225.02549 311.16762a1.45253 1.45253 0 000-2.90332 1.45253 1.45253 0 000 2.90332zM232.69024 310.47082a1.45252 1.45252 0 000-2.90331 1.45252 1.45252 0 000 2.90331z"></path></svg>