<svg xmlns="http://www.w3.org/2000/svg" data-name="Layer 1" viewBox="0 0 700 550" id="girl-enjoying-at-he-beach"><path fill="#020202" d="M480.862 290.07775c-3.47427-.59033-6.9099-1.35485-10.31642-2.19681-3.41626-.813-6.79377-1.75166-10.17129-2.70012-3.36782-.98708-6.726-1.9936-10.04547-3.11619-3.33882-1.10328-6.64859-2.27424-9.91-3.62915l-69.26342-24.37817c-4.73242-.70645-9.4164-1.57747-14.11013-2.42911l-14.03269-2.66137c-4.67435-.92909-9.34865-1.84842-14.00363-2.82588-4.67435-.97746-9.32933-1.97429-13.98431-3.09688 4.7808.32907 9.52284.91939 14.24557 1.61616 4.72273.67745 9.42615 1.50972 14.11013 2.40974l7.01634 1.45166c2.32268.542 4.655 1.03552 6.968 1.63554 4.64529 1.13233 9.24221 2.4098 13.79075 3.90014L411.647 187.30045s.46457 33.44618 18.11671 52.95643l10.65518 38.1786c3.48395.58064 6.9099 1.34522 10.3261 2.17749 3.40658.82258 6.79378 1.75166 10.17129 2.70975 3.35814.98714 6.71634 1.99361 10.04548 3.11625 3.32913 1.10322 6.64858 2.28393 9.90028 3.63878l-32.5171-115.31964c-4.64529-22.7717-6.50346-27.87182-14.40045-29.69123-7.897-1.8291-27.87181 7.8583-27.87181 7.8583l-95.69326 67.82145s.13544 21.08772 6.13564 22.29744c0 0-.29032-.01938-.82258-.01938-5.48725 0-36.81407 1.78073-49.21123 41.59487 0 0 3.53239 5.45819 45.75628 5.45819 33.24293 0 70.29894 8.86482 88.29947 13.77143a84.46793 84.46793 0 0118.28122 7.49054c37.685 20.68127 78.88307 19.83932 86.08329 17.87471 0 0 12.35841-1.71291 17.88441 3.3582 2.4678 2.25492 4.86792-7.055 6.50339-13.11329a37.24437 37.24437 0 001.27747-9.71647zm41.52712 40.04639a1.45258 1.45258 0 010-2.90332A1.45258 1.45258 0 01522.38913 330.12414zm2.09036-6.03889a1.45258 1.45258 0 010-2.90331A1.45258 1.45258 0 01524.47949 324.08525zm1.8581-6.03888a1.45258 1.45258 0 010-2.90332A1.45258 1.45258 0 01526.33759 318.04637zm1.39359-5.34212a1.45258 1.45258 0 010-2.90331A1.45258 1.45258 0 01527.73118 312.70425zM194.71292 137.82715A23.67759 23.67759 0 01193.088 145.947a20.66478 20.66478 0 01-1.87634 3.77728 18.94747 18.94747 0 01-2.63709 3.35669l.262-.68548a61.338 61.338 0 001.51916 8.13122 38.348 38.348 0 002.76843 7.72 14.75152 14.75152 0 005.07459 6.081 9.5157 9.5157 0 003.75134 1.33954 14.654 14.654 0 004.1438-.21308 12.33136 12.33136 0 01-4.18188.90021 9.52071 9.52071 0 01-4.27906-1.00092 14.67863 14.67863 0 01-6.05212-6.28552 33.9 33.9 0 01-3.09607-8.06293 48.95286 48.95286 0 01-1.36682-8.48059.87621.87621 0 01.25464-.67834l.00744-.00745a22.10474 22.10474 0 002.59742-2.94561 24.66078 24.66078 0 002.06494-3.40784A32.00216 32.00216 0 00194.71292 137.82715z"></path><line x1="181.706" x2="193.552" y1="137.827" y2="134.575" fill="none" stroke="#020202" stroke-linecap="round" stroke-linejoin="round" stroke-width="2.903"></line><line x1="199.823" x2="212.133" y1="132.485" y2="130.162" fill="none" stroke="#020202" stroke-linecap="round" stroke-linejoin="round" stroke-width="2.903"></line><path fill="#020202" d="M210.715 173.50232a9.26878 9.26878 0 003.02429-1.68524 7.171 7.171 0 001.93518-2.756 14.83525 14.83525 0 00.74353-6.75855 36.9042 36.9042 0 00-1.34473-6.84283 52.33628 52.33628 0 00-2.34143-6.59314l.895.50933a13.64913 13.64913 0 01-5.47937-.59747 16.81761 16.81761 0 01-4.73218-2.63708 24.927 24.927 0 01-3.76111-3.757 28.60593 28.60593 0 01-2.95361-4.373l-.016-.02972a.35448.35448 0 01.14294-.48059.38353.38353 0 01.05555-.02424 31.26545 31.26545 0 0122.82849 1.471 24.18811 24.18811 0 019.10632 7.46857 25.82271 25.82271 0 011.66785 2.46332c.26379.41754.49585.86523.73791 1.28528q.3316.60387.7041 1.17877a12.38137 12.38137 0 003.71875 3.80145 9.73685 9.73685 0 001.14746.61456l1.32471.5315a16.03752 16.03752 0 012.69263 1.48126 17.07632 17.07632 0 014.35449 4.27112 18.9421 18.9421 0 012.69568 5.44055 20.41314 20.41314 0 01.8 5.96912c-.01465 1.02734-.07764 1.91406-.03443 2.85443a20.19214 20.19214 0 00.27478 2.76672 16.80435 16.80435 0 001.7627 5.24634c.88574 1.68512 1.88635 3.36664 2.6394 5.16992a11.43937 11.43937 0 011.18665 5.7.09675.09675 0 01-.1084.08362.10091.10091 0 01-.08435-.10107 11.62533 11.62533 0 00-1.665-5.36115c-.90613-1.67474-1.94324-3.26868-2.97192-4.92242a16.982 16.982 0 01-2.23023-5.53211 21.74728 21.74728 0 01-.41418-2.96277c-.08533-.98242-.05811-2.02215-.0824-2.91937a17.81031 17.81031 0 00-3.4292-10.22949 15.43708 15.43708 0 00-6.20386-5.08728l-1.34277-.57459a11.723 11.723 0 01-1.37927-.77783 14.27705 14.27705 0 01-4.2096-4.47247q-.39972-.64609-.74743-1.31677c-.22949-.41889-.43067-.83222-.67261-1.23414-.45715-.81427-.9729-1.59271-1.50232-2.36083a24.29584 24.29584 0 00-8.24951-7.44483 29.03553 29.03553 0 00-10.82214-3.30279 25.98009 25.98009 0 00-5.70228.10766 21.19568 21.19568 0 00-5.48486 1.39563l.1825-.53424a27.01962 27.01962 0 003.10608 4.02716 24.01839 24.01839 0 003.77929 3.337 17.71885 17.71885 0 004.40247 2.183 13.03225 13.03225 0 004.76721.45642l.048-.004a.84411.84411 0 01.84729.51355 50.89664 50.89664 0 012.32056 6.87885 34.60748 34.60748 0 011.12439 7.18432 15.057 15.057 0 01-1.267 7.22315 7.91528 7.91528 0 01-2.3988 2.82587 8.60737 8.60737 0 01-3.33667 1.42108.09691.09691 0 01-.11475-.07483A.10061.10061 0 01210.715 173.50232zM193.55167 137.82715a8.51884 8.51884 0 00-2.69825 1.13171 11.99638 11.99638 0 00-2.27942 1.79743 14.74767 14.74767 0 00-3.08447 4.85467 21.8555 21.8555 0 00-.95508 2.72614c-.24963.93133-.42822 1.88586-.62133 2.8294-.1084.96479-.26941 1.91852-.35926 2.88282l-.15893 2.907-.00049.00775-.00977.09021a56.97775 56.97775 0 01-2.088 8.55145 27.52893 27.52893 0 01-3.91858 8.03894 8.94846 8.94846 0 01-3.72827 3.02149 8.1909 8.1909 0 01-1.19409.34424 6.66775 6.66775 0 00-.91773.25811 13.0452 13.0452 0 00-1.83752.81446 25.619 25.619 0 00-6.47278 5.22461A25.31306 25.31306 0 00156.375 198.329a23.30266 23.30266 0 00.96387 8.38232 30.93362 30.93362 0 003.69568 7.76331 25.03144 25.03144 0 01-5.921-16.20825 23.67008 23.67008 0 011.95362-8.67639 28.94035 28.94035 0 014.80017-7.50336 26.75377 26.75377 0 016.92139-5.68433 14.92862 14.92862 0 012.11755-.95636 7.78946 7.78946 0 011.1676-.33123l.47229-.116a1.82082 1.82082 0 00.417-.13129 7.1087 7.1087 0 002.9198-2.38159 27.90511 27.90511 0 003.74073-7.45184 64.06081 64.06081 0 002.262-8.23389l-.01013.09754.28039-2.99878c.1355-.99537.327-1.9867.50135-2.9751.25341-.97626.49292-1.95685.80615-2.91449a22.20338 22.20338 0 011.15576-2.79993 15.474 15.474 0 013.59937-4.82959A10.16479 10.16479 0 01193.55167 137.82715z"></path><path fill="#020202" d="M199.90884 175.60553a12.43887 12.43887 0 01.93616 2.55188 9.11224 9.11224 0 01.29187 2.71728 5.3595 5.3595 0 01-2.81616 4.56135l.12256-.30488q1.91344 5.77506 3.68652 11.59522.88384 2.91284 1.66052 5.86169c.26258.98249.50891 1.97034.73169 2.9701a19.10839 19.10839 0 01.50257 3.1098l-.72571-.53c1.83288-.57916 3.66589-1.05194 5.53137-1.4566a50.60792 50.60792 0 015.6582-.90674 26.09056 26.09056 0 015.8031.00146 9.19755 9.19755 0 015.54224 2.38227l-1.19873.19323a25.27426 25.27426 0 012.99255-4.48846 29.16671 29.16671 0 013.7428-3.82245 28.3003 28.3003 0 014.36658-3.10071 30.74552 30.74552 0 014.85437-2.27728l-.20508 1.42493-10.945-7.85749-10.90319-7.91528-.00916-.00665a.83383.83383 0 01.1969-1.45533c1.0498-.394 2.08411-.74133 3.15955-1.04589.53588-.15241 1.07885-.291 1.63964-.40345a9.26446 9.26446 0 011.77588-.21447.81362.81362 0 01.44568.13159c6.58008 4.25928 13.10816 8.59894 19.65222 12.91388l-.16882-.0777a28.512 28.512 0 017.63464 3.901 15.08792 15.08792 0 015.43433 6.64508 11.57648 11.57648 0 01-.26721 8.52161l-3.36988 7.73663-.23352-.51788c4.46668 1.15637 9.0066 2.09924 13.55677 2.92059 4.55346.81537 9.13733 1.47553 13.7434 1.894a129.9329 129.9329 0 0013.844.58295 72.252 72.252 0 0013.71265-1.52338.4416.4416 0 01.53491.43329l-.00025.008c-.02063 1.90222.05786 3.82745.19275 5.73474.13428 1.91009.35059 3.81335.66663 5.69433a34.61359 34.61359 0 001.32068 5.53388 15.84346 15.84346 0 002.50024 4.93555.61147.61147 0 01-.48682.99633l-.03234-.00067a41.51778 41.51778 0 00-16.39856 3.33472 47.3591 47.3591 0 00-14.06751 9.14947 60.17047 60.17047 0 00-5.67859 6.23169 62.4162 62.4162 0 00-4.68213 7.02961 78.33239 78.33239 0 00-6.73889 15.51971l-.00354.01111a.9643.9643 0 01-1.21057.62811l-.03235-.01092a65.00248 65.00248 0 01-10.7052-4.83674 30.66872 30.66872 0 01-4.89978-3.40307 16.44141 16.44141 0 01-2.13342-2.22156 7.705 7.705 0 01-.8916-1.32031l-.3855-.65357a5.53924 5.53924 0 00-.30627-.498 16.47871 16.47871 0 00-4.05909-3.53626c-1.55859-1.04388-3.20984-1.98852-4.88952-2.8847-3.36524-1.78864-6.85352-3.38635-10.377-4.9021-7.054-3.02588-14.27014-5.70209-21.511-8.30005a52.62279 52.62279 0 01-5.453-2.18353 35.45957 35.45957 0 01-5.11206-2.97974 31.52213 31.52213 0 01-4.52954-3.82709 22.70781 22.70781 0 01-3.64233-4.78509.72079.72079 0 01-.04334-.60083l.01355-.03589a118.5777 118.5777 0 004.025-13.124 99.31827 99.31827 0 002.4237-13.52619 60.44369 60.44369 0 00.00159-13.69708 31.122 31.122 0 00-4.27588-12.89942l-.0188-.03027a.17723.17723 0 01.01612-.209 2.14257 2.14257 0 011.06689-.62848 5.88421 5.88421 0 011.12561-.21582 12.469 12.469 0 012.24512.03167 29.32916 29.32916 0 014.36719.83619.0968.0968 0 01.06945.118.09784.09784 0 01-.11633.06982 29.08078 29.08078 0 00-4.34631-.70691 12.13431 12.13431 0 00-2.17749.02942 5.49254 5.49254 0 00-1.03968.22894 1.92972 1.92972 0 00-.81921.472l-.00268-.239a31.75243 31.75243 0 014.73022 13.02911 60.20224 60.20224 0 01.28333 13.915 100.57715 100.57715 0 01-2.1875 13.7406 111.47176 111.47176 0 01-3.90345 13.37482l-.02966-.63642a21.43749 21.43749 0 003.406 4.33759 29.8581 29.8581 0 004.33239 3.57159 33.71494 33.71494 0 004.89881 2.77741c.86218.37793 1.71277.78131 2.60583 1.08709q1.30828.50244 2.69544.96015c7.31164 2.49109 14.55078 5.20483 21.67968 8.22894 3.56079 1.52136 7.09253 3.12671 10.54041 4.94763 1.72241.9137 3.42468 1.87989 5.07214 2.97669a18.15784 18.15784 0 014.59754 4.04113 7.50331 7.50331 0 01.45056.73127l.35266.58923a5.85237 5.85237 0 00.7262 1.06653 14.42915 14.42915 0 001.87011 1.93365 31.08375 31.08375 0 004.578 3.19043 63.1354 63.1354 0 0010.30993 4.74109l-1.24621.62818a80.22659 80.22659 0 017.00866-15.8476 64.21378 64.21378 0 014.87012-7.20563 58.91219 58.91219 0 015.91956-6.38971 48.95479 48.95479 0 0114.67859-9.24981 42.72587 42.72587 0 0117.04406-3.19281l-.51916.99554a16.94553 16.94553 0 01-2.63574-5.35553 35.64179 35.64179 0 01-1.27979-5.72046c-.29309-1.92523-.48254-3.86029-.589-5.7973-.10693-1.93945-.15686-3.87048-.10571-5.82281l.53454.44116a77.77333 77.77333 0 01-13.89318 1.36859 130.60387 130.60387 0 01-13.91517-.66406c-4.62085-.45813-9.21423-1.13587-13.7915-1.89685-4.57446-.79035-9.12256-1.69831-13.63672-2.83057a.36143.36143 0 01-.26257-.43854l.01672-.05054.01221-.029 3.24829-7.70575a10.66048 10.66048 0 00.11951-7.8659 14.036 14.036 0 00-5.18152-6.06812 27.43682 27.43682 0 00-7.33545-3.58313l-.00647-.002a.7208.7208 0 01-.1626-.07587c-6.61755-4.20135-13.2511-8.378-19.83264-12.63507l.44531.13153a7.80323 7.80323 0 00-1.44531.19055c-.50146.10346-1.009.23548-1.51477.38269-1.00891.29132-2.02942.64112-3.00684 1.01453l.18775-1.46173 10.92969 7.8786 10.88781 7.93646a.81464.81464 0 01-.1903 1.41956l-.0149.00555a29.14271 29.14271 0 00-4.60254 2.11975 26.72611 26.72611 0 00-4.15625 2.90613 27.62642 27.62642 0 00-3.58032 3.6037 24.02277 24.02277 0 00-2.82788 4.15949l-.0144.0277a.73452.73452 0 01-.99085.31177.7538.7538 0 01-.19372-.14618 8.00155 8.00155 0 00-4.67029-2.00048 24.77118 24.77118 0 00-5.49329-.09375 56.51992 56.51992 0 00-10.967 2.11468.56765.56765 0 01-.72436-.50562l-.00147-.02453a37.34515 37.34515 0 00-1.09558-5.8327c-.47339-1.96173-1.01148-3.91205-1.53345-5.8667q-1.58349-5.85993-3.33191-11.681a.26423.26423 0 01.11585-.30121l.00671-.004a5.401 5.401 0 001.90479-1.69311 5.47768 5.47768 0 00.80456-2.44 8.80437 8.80437 0 00-.20483-2.6297 12.21873 12.21873 0 00-.84107-2.52551.09683.09683 0 01.04065-.1308A.101.101 0 01199.90884 175.60553zM161.20877 272.59906a15.06117 15.06117 0 013.84228-4.97552 24.43056 24.43056 0 015.25159-3.53559 27.72119 27.72119 0 015.937-2.12219c1.01306-.26856 2.06324-.38269 3.09009-.54987 1.0437-.09118 2.08814-.14965 3.13123-.13977-.97217.41407-1.9524.71967-2.91651 1.06555-.95422.3794-1.922.68635-2.85974 1.06739q-2.83209 1.09214-5.519 2.4107a49.77291 49.77291 0 00-5.18933 2.99024A34.90168 34.90168 0 00161.20877 272.59906zM242.21121 287.87048a22.597 22.597 0 014.62927 1.774 22.3409 22.3409 0 014.19678 2.639 22.34123 22.34123 0 01-4.62927-1.774A22.59577 22.59577 0 01242.21121 287.87048zM242.21121 294.49005a17.82764 17.82764 0 014.01831 1.789 17.62805 17.62805 0 013.53027 2.624 17.6233 17.6233 0 01-4.01831-1.789A17.82763 17.82763 0 01242.21121 294.49005zM236.63687 298.90308a20.59034 20.59034 0 014.11292 2.3352 20.351 20.351 0 013.55175 3.12305 20.35039 20.35039 0 01-4.11279-2.33521A20.57943 20.57943 0 01236.63687 298.90308zM233.03677 304.36133a8.81034 8.81034 0 012.94165.90112 8.7116 8.7116 0 012.51648 1.7699 8.712 8.712 0 01-2.94165-.90112A8.8124 8.8124 0 01233.03677 304.36133z"></path><path fill="#020202" d="M215.784 169.843c.0044 1.06109.00086 2.097.04 3.12231a17.21989 17.21989 0 00.33826 3.0008 5.17437 5.17437 0 001.194 2.55566 4.11367 4.11367 0 002.67358 1.1131 4.13347 4.13347 0 01-1.61486.127 3.34392 3.34392 0 01-1.56067-.67578 4.97574 4.97574 0 01-1.63684-2.91351 10.62 10.62 0 01-.14539-3.22956A11.505 11.505 0 01215.784 169.843zM226.30105 178.009a19.94471 19.94471 0 016.05018-.21325 16.78122 16.78122 0 015.87805 1.74231 11.24165 11.24165 0 014.47986 4.23053 11.81036 11.81036 0 011.548 5.85907 14.97718 14.97718 0 00-2.18616-5.45539 11.8427 11.8427 0 00-4.29675-3.78082 19.55709 19.55709 0 00-5.53479-1.85175A32.75061 32.75061 0 00226.30105 178.009zM182.9534 137.4848a14.62165 14.62165 0 011.58594 3.64917 14.4577 14.4577 0 01.65857 3.92407 14.45726 14.45726 0 01-1.58594-3.64923A14.617 14.617 0 01182.9534 137.4848zM210.61478 130.44885a15.01463 15.01463 0 012.33691 3.287 14.845 14.845 0 011.48718 3.7489 14.84054 14.84054 0 01-2.33691-3.287A15.013 15.013 0 01210.61478 130.44885zM189.003 218.19525l-.25171 10.34534-.29138 10.3435a.42128.42128 0 01-.01.07923l-.00354.01477-5.27283 22.47326-.12073-.60906c2.62732 3.43157 6.46045 5.89978 10.31922 8.04766a98.47778 98.47778 0 0012.19177 5.5185 218.34806 218.34806 0 0025.65979 7.98315l-.15454-.01782 13.35364.27606.00512.00012a.57852.57852 0 01.34546.12287c.90784.70855 1.88587 1.40594 2.84864 2.08807l2.92749 2.02417a7.20438 7.20438 0 012.7124 2.64056 5.61389 5.61389 0 01.14111.54383 2.235 2.235 0 01-.03064.58313 2.05058 2.05058 0 01-.52673.97394 4.22488 4.22488 0 01-1.68189 1.03552l.10938-.7005c.28564.25079.58166.48535.85437.75183a4.57927 4.57927 0 01.70251.94025 2.80322 2.80322 0 01.24683 2.37231 4.88321 4.88321 0 01-1.33081 1.88483 9.07783 9.07783 0 01-1.825 1.3023l.14648-.47552a3.64384 3.64384 0 01.39771 2.49762 3.44261 3.44261 0 01-1.59339 1.94446 11.658 11.658 0 01-4.53454 1.48321l.26208-.24188a3.62207 3.62207 0 01-.89013 1.69446 4.3067 4.3067 0 01-1.62818.95288 6.77614 6.77614 0 01-1.80762.3291 9.617 9.617 0 01-1.82641-.06262l.31311-.45575a4.22946 4.22946 0 01.46887 1.10644 1.24342 1.24342 0 01-.4375 1.30219 3.54155 3.54155 0 01-1.11963.47925l-.52991.15149-.25439.07965a2.08482 2.08482 0 01-.36023.05908 29.4561 29.4561 0 01-4.453-.66687c-2.91028-.61139-5.76135-1.21655-8.67554-1.98743a14.16073 14.16073 0 01-7.24963-5.29767 15.40057 15.40057 0 01-1.16834-1.97064l-.96606-1.99621-1.93054-3.98731.54284.32489c-3.083.13861-6.16577.31629-9.25256.42267l-4.63538.05786-2.31848.0202-2.31946-.06549-4.6405-.14569L184.824 294.41c-1.54858-.08288-3.0852-.33807-4.62732-.5249-.77-.10486-1.54248-.18951-2.30981-.31805l-2.2948-.4444c-.76392-.15485-1.53284-.28223-2.29272-.46l-2.26856-.59772c-1.5249-.34961-2.99365-.92609-4.48279-1.42322a36.07728 36.07728 0 01-8.35327-4.44842 40.64855 40.64855 0 01-3.62952-3.02014l-1.69567-1.54175-1.76624-1.46118a12.00006 12.00006 0 01-3.16345-3.89429 7.098 7.098 0 01-.66382-2.60052 5.94428 5.94428 0 01.08228-1.38617 4.8942 4.8942 0 01.48571-1.42725l-.06628.13434 5.85669-14.57154 1.46411-3.64294c.46423-1.20813 1.03308-2.44324 1.39734-3.62579a45.49214 45.49214 0 001.78442-7.4668 155.52447 155.52447 0 001.70313-15.50983c.32605-5.20544.51843-10.43609.55041-15.64727l.00012-.02082a.66321.66321 0 01.01478-.13214 50.41017 50.41017 0 013.30273-10.24237 30.66241 30.66241 0 015.99976-8.94458 21.661 21.661 0 0119.77465-6.077.0966.0966 0 01-.03637.1897l-.00916-.00159a21.20114 21.20114 0 00-19.05408 6.54346 29.60026 29.60026 0 00-5.56958 8.777 50.04972 50.04972 0 00-2.9718 10.04913l.01477-.15258c.04883 5.26208-.0636 10.50451-.311 15.75634a152.1671 152.1671 0 01-1.4961 15.73169 47.29754 47.29754 0 01-1.84228 7.79663c-.411 1.32117-.94336 2.46961-1.41358 3.70655l-1.453 3.6502-5.81238 14.601-.01965.04345-.04675.09131a3.3896 3.3896 0 00-.23316.75849 3.89291 3.89291 0 00-.048.91388 5.23238 5.23238 0 00.47913 1.84484 10.03877 10.03877 0 002.60852 3.22583l1.78015 1.4997 1.7091 1.58069a38.702 38.702 0 003.44214 2.91711 34.18379 34.18379 0 007.86878 4.27295c1.428.48767 2.82715 1.056 4.307 1.407l2.19361.59894c.73718.1792 1.48852.30963 2.2323.4671l2.23669.4538c.74988.13208 1.50916.22052 2.26282.33673 1.51208.20587 3.0144.48053 4.54285.58478l4.57031.41992 4.59216.21314 2.29724.09979 2.30139.01434 4.60437.04621c3.07044-.03565 6.14234-.14234 9.21534-.2099l.0238-.00049a.55822.55822 0 01.51929.32556l1.84179 4.02893.92395 2.00995a14.43978 14.43978 0 001.05176 1.85742 13.30034 13.30034 0 006.71167 5.10468c1.3457.44287 2.83789.74121 4.256 1.09191 1.43592.33631 2.87378.66321 4.31458.96613a29.94839 29.94839 0 004.291.68591 1.56778 1.56778 0 00.18555-.02551l.27454-.08386.536-.149a3.058 3.058 0 00.91382-.36755c.44921-.26752.161-1.00312-.1814-1.60114a.30688.30688 0 01.30408-.457l.009.00116a7.87949 7.87949 0 003.35425-.21875 3.5009 3.5009 0 001.39233-.81067 3.02626 3.02626 0 00.71411-1.39868.32161.32161 0 01.26233-.24213 11.08506 11.08506 0 004.24854-1.42675 2.79572 2.79572 0 001.29822-1.57471 2.97936 2.97936 0 00-.3606-1.9895l-.0033-.0069a.36129.36129 0 01.14991-.46887 8.41555 8.41555 0 001.65466-1.20716 4.18277 4.18277 0 001.12207-1.59942 2.041 2.041 0 00-.21155-1.76233 3.83038 3.83038 0 00-.5874-.76911c-.24377-.22735-.51929-.43127-.775-.64941l-.00684-.00586a.41069.41069 0 01-.0459-.579.41555.41555 0 01.16223-.11572 3.45449 3.45449 0 001.31067-.84436 1.05486 1.05486 0 00.22131-1.19562 6.58817 6.58817 0 00-2.43164-2.16742l-2.99157-1.96106c-.99439-.669-1.97168-1.32776-2.95764-2.05884l.35034.12287-13.35645.04382a.66339.66339 0 01-.13843-.01416l-.0166-.00372c-4.43274-.96424-8.783-2.15265-13.11633-3.44513-4.32385-1.31153-8.63-2.70575-12.84375-4.36865a100.08388 100.08388 0 01-12.34338-5.72925c-3.93323-2.25092-7.86976-4.78626-10.72828-8.57337a.7223.7223 0 01-.12085-.60937l5.75965-22.35352-.01343.09357.63757-10.328.67725-10.32618a.0968.0968 0 01.19336.00867zM530.53433 309.64709a29.32154 29.32154 0 005.8634-3.86492 37.9602 37.9602 0 004.944-4.94526 38.68832 38.68832 0 003.90845-5.7658c.61609-.98542 1.06775-2.06128 1.59107-3.09613.489-1.05237.87793-2.15052 1.32251-3.22156l-.01966.06054c.30615-1.08282.65454-2.11077 1.05078-3.14727a25.90685 25.90685 0 011.38416-3.04645 9.24428 9.24428 0 012.19641-2.79639 3.27764 3.27764 0 012.01648-.76434 3.12173 3.12173 0 012.00024.86151l-1.30847.24579a5.67934 5.67934 0 011.05652-1.35034 3.9569 3.9569 0 011.55017-.92884 2.92647 2.92647 0 011.89441.05036 4.6394 4.6394 0 011.48706.88714l-1.15137.26081a5.45293 5.45293 0 011.03638-1.411 3.60334 3.60334 0 011.579-.93646 2.90379 2.90379 0 011.87048.12664 4.482 4.482 0 01.7854.40253c.23133.163.44519.34088.66541.51233l-.85632.09253a4.91036 4.91036 0 011.24633-1.04944 3.7602 3.7602 0 011.5625-.522 3.21675 3.21675 0 011.63257.26458 4.87276 4.87276 0 011.31885.86444l-.66687.08857a12.87089 12.87089 0 012.02979-2.1554 8.4691 8.4691 0 012.53881-1.538 4.99672 4.99672 0 015.55689 1.34259 5.4 5.4 0 011.04565 5.65326 8.73337 8.73337 0 01-4.11609 4.14618l.209-.40113a21.93582 21.93582 0 01-7.08936 18.50366 25.08771 25.08771 0 01-2.67785 2.15711c-.93567.66064-1.954 1.189-2.93164 1.7854l.09265-.05475a12.02238 12.02238 0 00-3.45911 4.4613 12.70572 12.70572 0 00-1.14612 5.59638 21.44737 21.44737 0 00.28443 2.93725 13.71052 13.71052 0 01.06518 3.327 20.795 20.795 0 01-1.63916 6.27246 24.24994 24.24994 0 01-7.84875 10.04737 16.799 16.799 0 01-5.85108 2.78045 13.77983 13.77983 0 01-6.48266.05591l-.02893-.00671-.01893-.00531a35.58356 35.58356 0 01-4.479-1.83 16.3406 16.3406 0 01-4.05334-2.69183 28.85468 28.85468 0 00-3.62683-2.9682 25.57362 25.57362 0 00-4.11451-2.278.09689.09689 0 01.06726-.18152 22.61459 22.61459 0 014.34742 1.97614 28.217 28.217 0 013.91247 2.77118 15.30726 15.30726 0 003.94922 2.33459 34.41422 34.41422 0 004.38391 1.53211l-.04748-.01191a12.76 12.76 0 005.78247-.25457 15.09643 15.09643 0 005.17907-2.67151 23.34664 23.34664 0 007.03357-9.39728 19.689 19.689 0 001.48059-5.6607 11.66093 11.66093 0 00-.04638-2.84839 23.53681 23.53681 0 01-.25049-3.225 14.65759 14.65759 0 011.43567-6.40411 13.73862 13.73862 0 011.75683-2.7959 12.43907 12.43907 0 012.41712-2.33753l.0022-.0014.09082-.05359c.92443-.54492 1.89148-1.03009 2.78942-1.6159a23.4498 23.4498 0 002.56385-1.93757 20.91681 20.91681 0 004.18762-4.84552 20.96265 20.96265 0 003.19311-12.35577l-.00256-.03833a.37469.37469 0 01.21179-.3631 7.685 7.685 0 003.86646-3.7052 4.73986 4.73986 0 00-.87024-5.00262 4.3333 4.3333 0 00-4.88684-1.11035 9.57657 9.57657 0 00-4.06128 3.56305.44922.44922 0 01-.62378.12048l-.01819-.01294-.02515-.019a3.93833 3.93833 0 00-1.08667-.63855 2.2069 2.2069 0 00-1.15576-.13043 2.68729 2.68729 0 00-1.09594.43469 3.84893 3.84893 0 00-.88843.82086.59.59 0 01-.80481.12866l-.05188-.03607-.54627-.37884a3.246 3.246 0 00-.56421-.25373 1.59681 1.59681 0 00-1.07666-.02838 2.25374 2.25374 0 00-.93969.64026 4.10859 4.10859 0 00-.69141 1.03741.7359.7359 0 01-1.0946.30158l-.057-.04077a3.13082 3.13082 0 00-1.00586-.54212 1.44633 1.44633 0 00-.94531.00782 2.35252 2.35252 0 00-.884.57977 4.13014 4.13014 0 00-.69921.93548.8489.8489 0 01-1.27759.271l-.03125-.02521a1.23989 1.23989 0 00-1.83533-.00342 8.12283 8.12283 0 00-1.74866 2.28156 30.11666 30.11666 0 00-2.40039 5.78424l-.01465.0473-.00512.01367c-.48181 1.10541-.90845 2.2342-1.43689 3.317-.56336 1.06616-1.05518 2.16925-1.71387 3.18237-.31457.514-.61621 1.0362-.94849 1.5384l-1.06091 1.46368c-.34094.4964-.7279.95831-1.11621 1.41833-.39343.45545-.75122.93988-1.1731 1.36963a33.189 33.189 0 01-5.3507 4.79584 26.431 26.431 0 01-6.26819 3.43256.09664.09664 0 01-.07569-.17749zM193.55164 157.04712a1.45252 1.45252 0 000-2.90331 1.45252 1.45252 0 000 2.90331zM205.62943 153.447a1.45253 1.45253 0 000-2.90332 1.45253 1.45253 0 000 2.90332zM198.66153 157.5697a4.34941 4.34941 0 002.11011 1.22186 2.87751 2.87751 0 001.11792-.09851c.19958-.05267.40283-.13391.6228-.19378a5.178 5.178 0 01.67834-.23273 4.09708 4.09708 0 01-.40808.62354 3.69274 3.69274 0 01-.57751.48907 2.36776 2.36776 0 01-1.56616.37042 2.24679 2.24679 0 01-1.40809-.79822A2.36015 2.36015 0 01198.66153 157.5697zM189.37088 152.92444a2.76562 2.76562 0 01.86792-1.12085 4.11677 4.11677 0 011.23559-.69055 3.72541 3.72541 0 012.774.06939c-.44946.19617-.86584.31061-1.27075.44764-.40466.12835-.79651.25781-1.18408.39593-.394.12219-.773.28229-1.172.42523zM202.26163 149.44043a3.4895 3.4895 0 011.50134-1.86585 3.37243 3.37243 0 012.33093-.5664 11.9245 11.9245 0 01-1.8081 1.38019A10.97779 10.97779 0 01202.26163 149.44043zM199.59048 165.7226a15.62915 15.62915 0 003.14038-1.75843 7.16674 7.16674 0 001.24805-1.18286 14.76378 14.76378 0 001.06983-1.49536 3.78877 3.78877 0 01-.4386 1.91 4.43623 4.43623 0 01-1.29163 1.53638 5.27117 5.27117 0 01-1.78308.87647A4.32574 4.32574 0 01199.59048 165.7226z"></path><path fill="#020202" d="M529.81363 325.55554a3.92243 3.92243 0 002.8518.969 6.36432 6.36432 0 001.48707-.35169c.24414-.11059.50659-.19787.76843-.30212a7.12558 7.12558 0 01.81543-.31519 6.13783 6.13783 0 01-.54773.70777 7.35068 7.35068 0 01-.689.5802 3.87681 3.87681 0 01-1.75036.64459 2.92549 2.92549 0 01-1.86377-.46442A2.49932 2.49932 0 01529.81363 325.55554zM556.23367 280.55414a4.62985 4.62985 0 01.67005 2.28235 4.82771 4.82771 0 01-.09339 1.18957 1.85385 1.85385 0 01-.57666 1.1153c-.01819-.42005-.13281-.76319-.1781-1.14167a10.71176 10.71176 0 01-.118-1.12109A6.113 6.113 0 01556.23367 280.55414zM560.99515 279.39282a2.48434 2.48434 0 01.79455 1.00434 3.34344 3.34344 0 01.30249 1.254 2.8934 2.8934 0 01-.24865 1.28955 2.10655 2.10655 0 01-.84839.98127c.03344-.45008.108-.80872.119-1.17688a9.35264 9.35264 0 00.01147-1.06153C561.11062 280.97125 561.01553 280.263 560.99515 279.39282zM565.87271 278.23151a3.915 3.915 0 01.92371 2.29669 3.44594 3.44594 0 01-.13111 1.27551 1.61258 1.61258 0 01-.7926 1.04407 4.375 4.375 0 00.04492-1.15015c-.02881-.36206-.04553-.72473-.08569-1.09717A9.97133 9.97133 0 01565.87271 278.23151zM570.86648 277.767a2.564 2.564 0 01.91773 1.93652 2.1749 2.1749 0 01-.91773 1.95392c-.02258-.39587-.00854-.70612-.01916-1.018-.01758-.30926-.00708-.602-.02979-.90405A12.346 12.346 0 01570.86648 277.767zM563.434 286.36078a17.91943 17.91943 0 013.95337-1.25714 15.95366 15.95366 0 014.18469-.31482 7.20915 7.20915 0 014.05383 1.408 4.0098 4.0098 0 011.26111 1.78784 5.19957 5.19957 0 01.2168 2.09235 4.70035 4.70035 0 00-1.9325-3.27716 7.68936 7.68936 0 00-3.66967-1.04645 24.34118 24.34118 0 00-4.00489.09454C566.15213 285.9834 564.79825 286.14911 563.434 286.36078zM558.90481 309.73767a10.75588 10.75588 0 012.62891-2.1759 10.50118 10.50118 0 013.11963-1.34235 11.98513 11.98513 0 01-5.74854 3.51825zM543.22684 302.38708a11.403 11.403 0 001.98816-1.27722 8.19857 8.19857 0 001.55249-1.62854 9.17253 9.17253 0 001.09069-1.97821c.17224-.3471.256-.72876.40613-1.09814.12415-.37695.21143-.7663.36279-1.16a8.55491 8.55491 0 01.10608 1.23706 6.70594 6.70594 0 01-.15368 1.24482 6.15408 6.15408 0 01-1.03125 2.32544 5.8301 5.8301 0 01-1.91712 1.68438A4.86015 4.86015 0 01543.22684 302.38708z"></path><path fill="none" stroke="#020202" stroke-linecap="round" stroke-linejoin="round" stroke-width="1.056" d="M314.17636,243.05892H314.128c-.76454.00967-1.53875.01935-2.313.03871h-.05807"></path><path fill="#020202" d="M420.17642 329.80994c.35645-1.34473.77087-2.59412 1.183-3.84229.41236-1.24615.816-2.48657 1.252-3.72186q.64508-1.85532 1.39648-3.69861a26.32614 26.32614 0 011.76221-3.65057 18.24931 18.24931 0 01-.3114 4.07031 24.51835 24.51835 0 01-1.02185 3.92065 21.00647 21.00647 0 01-1.70752 3.7024A13.19711 13.19711 0 01420.17642 329.80994zM153.11014 320.26776a39.45527 39.45527 0 01-6.4596-14.60156 41.18613 41.18613 0 01-.89941-8.04285l-.05347-7.949c.01672-5.29938.058-10.5987.21167-15.89807l.12085-3.97449.07861-1.98725c.01111-.32446.0221-.65863.06726-1.0512a4.4569 4.4569 0 01.31141-1.073 7.3981 7.3981 0 012.84155-3.01465 17.809 17.809 0 013.5968-1.762l.00049-.00013.00964.00074-.00964.00067h.00012a24.12008 24.12008 0 00-3.29346 2.17517 6.69976 6.69976 0 00-2.25891 2.94086 4.25452 4.25452 0 00-.15332 1.7835l.07862 1.98725.12085 3.97449c.15368 5.29937.19494 10.59869.21179 15.89807l-.05359 7.949a46.11313 46.11313 0 00.5509 7.76563A50.01788 50.01788 0 00153.11014 320.26776zM429.767 274.68567l-.00074-.00958a5.40808 5.40808 0 00-.9779-1.65747 13.22018 13.22018 0 00-1.30151-1.41828 28.82665 28.82665 0 00-2.97669-2.45044 65.774 65.774 0 00-6.51147-4.14935 124.36429 124.36429 0 00-13.96656-6.6499c-2.38232-.99811-4.79858-1.91883-7.23413-2.79-2.4226-.90961-4.88623-1.70532-7.34277-2.53223q-7.40038-2.38063-14.91895-4.54034a125.74214 125.74214 0 0130.23059 8.07306 89.30641 89.30641 0 0114.00782 7.14978 51.132 51.132 0 016.33044 4.70581 29.52231 29.52231 0 012.75684 2.8363 8.0783 8.0783 0 011.90576 3.42273v.00031zM203.42459 251.07208a31.10669 31.10669 0 01-4.67249 1.34943c-1.56811.34112-3.14282.61615-4.72729.81506-1.58362.20551-3.17761.32947-4.78174.391a30.8191 30.8191 0 01-4.86426-.14575 30.31176 30.31176 0 014.65857-1.35058c1.57032-.34015 3.15052-.6178 4.74121-.81391 1.58985-.20276 3.18946-.32934 4.79554-.38983A30.68969 30.68969 0 01203.42459 251.07208zM190.91128 294.05078c2.17261.31378 4.28406.77026 6.38367 1.25745 2.10254.47546 4.17908 1.02533 6.25891 1.56506 2.07056.57465 4.14319 1.14136 6.2002 1.78851 2.0603.6355 4.11462 1.30872 6.14514 2.144a44.4097 44.4097 0 01-6.49439-.67456c-2.14282-.35126-4.25561-.843-6.35363-1.39008-2.0885-.582-4.16346-1.21716-6.19251-1.993A43.28762 43.28762 0 01190.91128 294.05078zM244.08072 305.04468c7.79956.46478 15.59131.92578 23.39636.90075l2.92419.04615 2.925-.02539 5.84839-.05072c3.89734-.108 7.79456-.23444 11.68787-.411q23.35839-1.17033 46.53576-4.51911c15.44764-2.11951 30.80213-4.92248 46.05567-8.20453 3.82324-.77624 7.61658-1.69037 11.42749-2.529 3.81494-.82355 7.59924-1.77545 11.38928-2.707 7.61487-1.73273 15.13611-3.82745 22.72205-5.70722-7.46424 2.30146-14.94153 4.57959-22.485 6.626-3.769 1.033-7.53992 2.06213-11.34021 2.97687-3.79687.92657-7.57715 1.92889-11.38977 2.7937q-5.71692 1.30683-11.44861 2.55444L360.818 299.05225c-7.69238 1.41449-15.40271 2.746-23.14978 3.84747a446.41709 446.41709 0 01-46.74866 4.08569c-3.91125.089-7.82421.12751-11.73474.14746l-5.86694-.0816-2.93262-.04089-2.931-.12195-5.85876-.27893-5.849-.42517C251.84463 305.95282 247.9639 305.44745 244.08072 305.04468zM244.08072 268.73291a13.39046 13.39046 0 001.85718 9.50354 15.38271 15.38271 0 003.16149 3.68494c.59522.5509 1.27979 1.00738 1.92188 1.50189.70288.41962 1.35535.90924 2.09314 1.27136 5.78406 3.12048 12.41284 4.44812 18.98877 5.25531 1.64783.22156 3.31372.32971 4.97021.50073l4.99854.27387 5.01257.13312 5.02161-.00507c6.69934-.10455 13.4071-.42548 20.13476-.7793a182.02115 182.02115 0 01-20.08642 2.28888 117.35554 117.35554 0 01-20.28247-.4917 74.98766 74.98766 0 01-10.0315-1.91235 39.22429 39.22429 0 01-9.48181-3.9624 19.02182 19.02182 0 01-7.24194-7.29505A13.29164 13.29164 0 01244.08072 268.73291z"></path><path fill="#020202" d="M118.08353 335.14911a98.01609 98.01609 0 0150.47241-18.29328 101.43974 101.43974 0 0110.92407-.1015 98.48021 98.48021 0 0110.85681 1.18445c3.59168.58283 7.12842 1.41242 10.63916 2.29645 7.00159 1.8559 13.84863 4.12006 20.66956 6.41229 3.41113 1.14429 6.81616 2.30036 10.21423 3.507l2.55359.88123 2.53735.92932c1.6908.62158 3.38526 1.23041 5.0625 1.88849 6.73963 2.54327 13.36353 5.405 19.89441 8.426 3.26868 1.499 6.52149 3.02741 9.87793 4.20612a44.278 44.278 0 0010.338 2.35309 65.29788 65.29788 0 0021.10547-1.17682c6.88892-1.57868 13.42481-4.45026 20.02869-7.28693a198.0183 198.0183 0 0120.28345-7.75732 136.72483 136.72483 0 0121.25232-4.76117 179.31615 179.31615 0 0143.361-.52961 252.0653 252.0653 0 0142.41614 8.29407.14522.14522 0 01.10046.17908.148.148 0 01-.17078.1026l-5.28808-1.06079c-1.76087-.35645-3.51319-.74872-5.28675-1.03839-3.53772-.62342-7.06677-1.27234-10.61767-1.78534-7.0813-1.1518-14.219-1.8711-21.35034-2.42957a195.65323 195.65323 0 00-21.42432-.51581 176.281 176.281 0 00-21.28943 1.84748c-3.52417.50342-7.02038 1.17144-10.49939 1.91168-3.47009.7821-6.9093 1.69-10.32519 2.6814a195.1855 195.1855 0 00-20.09778 7.377c-3.324 1.37244-6.656 2.7724-10.07764 4.00543a79.14154 79.14154 0 01-10.52539 3.01709 56.229 56.229 0 01-10.89905 1.17578c-.91272-.00177-1.82629.06812-2.7362.00653l-2.72913-.136-1.363-.071-1.35876-.14465c-.90454-.11237-1.81238-.15692-2.712-.32825a45.71972 45.71972 0 01-10.56945-2.75836c-3.38758-1.33063-6.61646-2.942-9.86121-4.48444a212.59694 212.59694 0 00-19.80591-8.43713c-6.746-2.46533-13.61438-4.53857-20.52319-6.546-6.89527-2.02881-13.80188-3.99982-20.76233-5.60773q-5.21576-1.21581-10.47791-2.09118-5.26611-.82746-10.57763-1.1687a100.29152 100.29152 0 00-21.23072 1.123 108.62836 108.62836 0 00-39.86743 14.94617.14526.14526 0 01-.16076-.24176zM137.61307 410.96619A55.82322 55.82322 0 01160.85 400.62134a58.31163 58.31163 0 016.40333-.85535 60.07521 60.07521 0 016.47375-.0813 59.1808 59.1808 0 0112.71362 2.0896c4.11988 1.141 8.12818 2.531 12.11817 3.9314 1.995.69983 3.98535 1.40637 5.97534 2.1438 1.99878.69958 3.97656 1.46313 5.95264 2.22387 3.95617 1.511 7.85266 3.1941 11.70044 4.94544 3.83239 1.79321 7.70446 3.3905 11.82666 3.71057a38.54356 38.54356 0 0012.25024-.8302 71.46368 71.46368 0 0011.64246-4.3335 116.72165 116.72165 0 0111.949-4.63366 78.41639 78.41639 0 0112.56787-2.83057 101.8946 101.8946 0 0125.59619-.15344 139.6388 139.6388 0 0124.88013 5.287.14534.14534 0 01.09631.18164.14952.14952 0 01-.16662.10009c-2.088-.34277-4.15271-.77172-6.23548-1.10168-2.08349-.32642-4.16125-.663-6.24658-.939-4.16052-.6184-8.34924-.97448-12.52624-1.25036a117.24575 117.24575 0 00-24.94764.93945 95.6452 95.6452 0 00-23.90332 6.91577c-1.95678.7948-3.92138 1.61658-5.95312 2.32849a47.00772 47.00772 0 01-6.26367 1.7406 37.65941 37.65941 0 01-12.94312.15589 27.14614 27.14614 0 01-6.25415-1.70349c-1.99573-.81263-3.88672-1.776-5.78711-2.69068a113.26511 113.26511 0 00-11.61194-4.95666c-3.96447-1.42774-8.0072-2.58753-12.08349-3.70764-4.06433-1.137-8.1322-2.23389-12.21094-3.12683-2.03491-.46082-4.07837-.84485-6.11938-1.18555-2.04517-.31738-4.09705-.53626-6.15369-.683a60.18233 60.18233 0 00-12.36023.58728 66.78179 66.78179 0 00-23.45557 8.36865.14547.14547 0 01-.16076-.24182zM386.5845 239.4762a55.82171 55.82171 0 0123.23694-10.34479 58.30771 58.30771 0 016.40332-.85541 60.0754 60.0754 0 016.47376-.08136 59.194 59.194 0 0112.7135 2.0896c4.11987 1.141 8.12829 2.531 12.11828 3.93146 1.995.69989 3.98535 1.40637 5.97534 2.1438 1.99878.69958 3.97657 1.46313 5.95264 2.22381 3.95606 1.511 7.85266 3.19409 11.70032 4.94556 3.83252 1.79321 7.70459 3.39044 11.82678 3.71051a38.54358 38.54358 0 0012.25024-.83026 71.46047 71.46047 0 0011.64246-4.3335 116.74824 116.74824 0 0111.94885-4.63366 78.42069 78.42069 0 0112.568-2.83051 101.89694 101.89694 0 0125.59619-.15344 139.631 139.631 0 0124.88013 5.287.1452.1452 0 01.09631.18151.14966.14966 0 01-.16663.10016c-2.08813-.34277-4.15271-.77166-6.23547-1.10174-2.0835-.32636-4.16126-.66291-6.24658-.93884-4.16053-.61854-8.34937-.97461-12.52625-1.25037a117.24172 117.24172 0 00-24.94763.93939 95.64374 95.64374 0 00-23.90332 6.91577c-1.95691.79474-3.92139 1.61652-5.95313 2.32843a47.022 47.022 0 01-6.26367 1.74066 37.65934 37.65934 0 01-12.94311.15583 27.14046 27.14046 0 01-6.25415-1.70337c-1.99573-.81275-3.88672-1.776-5.78723-2.6908a113.28087 113.28087 0 00-11.61194-4.9566c-3.96448-1.4278-8.00708-2.58753-12.0835-3.70764-4.06421-1.13691-8.13208-2.23383-12.21094-3.12683-2.03491-.46082-4.07824-.84479-6.11938-1.18555-2.04505-.31732-4.09705-.53626-6.15357-.683a60.188 60.188 0 00-12.36023.58728 66.78433 66.78433 0 00-23.45556 8.36866.14544.14544 0 01-.16077-.24176zM314.94766 378.55505a55.821 55.821 0 0123.23694-10.34484 58.30516 58.30516 0 016.40332-.85535 60.07264 60.07264 0 016.47375-.08142 59.19334 59.19334 0 0112.71351 2.0896c4.11987 1.141 8.12829 2.531 12.11828 3.93152 1.995.69982 3.98535 1.40637 5.97534 2.14379 1.99878.69959 3.97657 1.46314 5.95264 2.22376 3.95606 1.51111 7.85266 3.19409 11.70032 4.94556 3.8324 1.79321 7.70459 3.3905 11.82666 3.71057a38.54463 38.54463 0 0012.25036-.83032 71.45122 71.45122 0 0011.64246-4.3335 116.74829 116.74829 0 0111.94885-4.63367 78.42133 78.42133 0 0112.568-2.83044 101.89321 101.89321 0 0125.59607-.15344 139.62961 139.62961 0 0124.88024 5.287.14527.14527 0 01.09632.18152.14976.14976 0 01-.16663.10022c-2.08813-.34277-4.15271-.77173-6.23547-1.10181-2.0835-.32629-4.16126-.66284-6.24658-.93884-4.16053-.61853-8.34937-.97461-12.52637-1.25036a117.24483 117.24483 0 00-24.94751.93945 95.64332 95.64332 0 00-23.90332 6.91577c-1.95691.79468-3.92139 1.61645-5.95313 2.32837a47.03273 47.03273 0 01-6.26367 1.74072 37.65909 37.65909 0 01-12.94311.15576 27.13745 27.13745 0 01-6.25415-1.70337c-1.99573-.81274-3.88672-1.776-5.78724-2.69079a113.25053 113.25053 0 00-11.61193-4.95654c-3.96448-1.42786-8.00708-2.58753-12.0835-3.70765-4.06421-1.137-8.1322-2.23388-12.21094-3.12683-2.03491-.46081-4.07824-.84485-6.11938-1.18554-2.04505-.31739-4.097-.53626-6.15357-.68311a60.19151 60.19151 0 00-12.36023.58728 66.78813 66.78813 0 00-23.45568 8.36865.14538.14538 0 01-.16065-.2417z"></path><path d="M255.33414 216.79736a9.1896 9.1896 0 01-1.05384 2.53955 11.29431 11.29431 0 01-1.67846 2.20765 9.0636 9.0636 0 01-2.26575 1.65277 5.73083 5.73083 0 01-2.71619.57843 12.865 12.865 0 002.33643-1.2312 16.47846 16.47846 0 001.95947-1.68183A45.56216 45.56216 0 00255.33414 216.79736zM228.71915 230.93933a9.18746 9.18746 0 01-1.87366 2.01227 11.29791 11.29791 0 01-2.34326 1.48321 9.06078 9.06078 0 01-2.70008.75837 5.731 5.731 0 01-2.74731-.40564 12.86326 12.86326 0 002.61914-.33863 16.48363 16.48363 0 002.42322-.89239A45.55949 45.55949 0 00228.71915 230.93933z"></path></svg>