<svg xmlns="http://www.w3.org/2000/svg" data-name="Layer 1" viewBox="0 0 700 550" id="woman-reading-book"><path d="M288.28469 368.78677s.42582.03869 1.23877.09675C288.83632 369.32872 288.45888 369.2416 288.28469 368.78677zM289.43634 359.87357l-1.15165 8.9132C287.78143 367.52862 288.86538 363.41559 289.43634 359.87357z"></path><path d="M440.27321 282.96473l-5.69051 20.1587a14.64035 14.64035 0 00-.17419 7.31635 107.07789 107.07789 0 012.1678 16.56825c1.04521 15.2134 0 19.74256-3.60008 18.92961s-2.67106-10.568-2.67106-10.568a24.6789 24.6789 0 01-5.61306 10.45192 4.73472 4.73472 0 01-3.95822 1.53878c-3.59045-.40644-1.825-3.79446-1.75722-4.15253a8.75737 8.75737 0 01-3.894 3.61057 4.85069 4.85069 0 01-4.791.11614c-2.21623-1.26778-.77421-3.71627-.66776-3.89046a5.46 5.46 0 01-5.79695-.00969c-3.17432-2.92263-.33875-4.89692 1.64517-5.81625a13.13894 13.13894 0 004.113-2.83563c4.42272-4.64529 3.29044-8.95188 3.12594-10.79062a2.051 2.051 0 00-1.8-1.92585 2.24867 2.24867 0 00-2.49687 2.55487 5.50018 5.50018 0 01-2.53556 4.80986 5.9976 5.9976 0 01-3.80333.96777c-3.9969-.31938-1.50972-4.81949-1.50972-4.81949s3.20332-5.27436 2.3323-8.739c-.88065-3.50333 4.21947-8.8067 7.47117-12.20359a14.64587 14.64587 0 004.01628-8.9132l2.15811-25.46206-38.74956 2.48718c-31.91709 29.39122-54.3984.89033-54.3984.89033-5.09049 7.568-11.6617 9.71646-11.6617 9.71646-9.79384 7.326-34.501-7.3841-34.501-7.3841s-18.21347 6.44533-18.14572 24.63943a28.032 28.032 0 0010.61643 21.47485c6.98734 5.6615 18.16509 13.33593 27.39761 13.33593l24.175-3.76465c4.01621-.66777 8.05186-1.28715 12.04871-2.042 4.05889-.52636 7.80509-2.23328 11.64232-3.46464.7452-.23226 1.5-.46452 2.24523-.69677-3.19363-2.65174-6.35826-5.33243-9.639-7.8583-3.3872-2.69043-6.87116-5.255-10.41324-7.73255-3.52264-2.50649-7.15178-4.84848-10.839-7.12278-1.8291-1.142-3.69689-2.22586-5.59375-3.28076q-2.81622-1.61131-5.72919-3.05813a90.70168 90.70168 0 0111.70033 5.70019c3.784 2.14842 7.43247 4.51947 11.02293 6.968 1.75166 1.2871 3.53239 2.52587 5.23568 3.87109l2.57424 1.99361c.85165.68708 1.68392 1.3839 2.51619 2.08067 1.684 1.37422 3.27107 2.85494 4.9066 4.27753 1.46135 1.3646 2.89363 2.75819 4.3066 4.14209 3.13557-.96777 6.28083-1.88716 9.43577-2.78718 3.92915-1.12259 7.84862-2.24524 11.79714-3.26139 7.897-2.06136 15.80373-4.1324 23.83622-5.56468-3.97753.9-7.926 1.92585-11.8552 3.00975q-5.90826 1.58235-11.78745 3.27107c-7.8293 2.24524-15.67791 4.4711-23.42977 6.968-3.945 1.24866-7.6592 2.90871-11.77777 3.40658-4.026.71614-8.05187 1.36453-12.09714 1.91617-8.08087 1.13227-16.17149 2.16779-24.28142 3.02913 0 0 12.07783 8.12924 0 24.85236-3.9969 5.53563-6.30983 8.18737-7.57761 9.01 9.10671.67746 67.08594 4.32592 128.97488-7.44216a39.95008 39.95008 0 0018.91993-8.99058C448.43151 342.79238 458.80606 322.70149 440.27321 282.96473zM296.49137 368.05126a1.45258 1.45258 0 010-2.90332A1.45258 1.45258 0 01296.49137 368.05126zm5.10986-5.57438a1.45258 1.45258 0 010-2.90331A1.45258 1.45258 0 01301.60123 362.47688zm2.09036-26.59434a1.45245 1.45245 0 010 2.90331A1.45245 1.45245 0 01303.69159 335.88254zm2.09042 18.23278a1.45258 1.45258 0 010-2.90331A1.45258 1.45258 0 01305.782 354.11532zm.929-8.36156a1.45258 1.45258 0 010-2.90332A1.45258 1.45258 0 01306.711 345.75376zM409.32389 243.84742q2.17749 9.87126 4.34528 19.74256-28.98955 5.22594-30.388 1.07422c-.271-.77421.20319-1.80973 1.40322-3.0872a165.46281 165.46281 0 0017.06182-43.10452c.1645.73551.3387 1.46134.50326 2.18717l.842 3.35814c.571 2.23555 1.20971 4.46141 1.8581 6.67765.65808 2.20649 1.32584 4.42272 2.06136 6.60983C407.73673 239.50213 408.48193 241.68931 409.32389 243.84742z"></path><path d="M422.75656 192.87491c-9.32933-9.9971-11.62294-10.38418-18.0199-11.2165 1.23872 12.63909-.26132 25.19112-2.913 36.485.3.79358.58064 1.58716.88064 2.38074l1.10328 3.28076c.73551 2.18711 1.40328 4.40335 2.071 6.61952.63871 2.21618 1.27747 4.43241 1.84842 6.67765.5807 2.23555 1.142 4.4711 1.59685 6.74534l2.98069 6.397 29.96223-10.99388S435.5311 206.57853 422.75656 192.87491zm-8.739 53.00487a1.45258 1.45258 0 010-2.90332A1.45258 1.45258 0 01414.01756 245.87978zm2.11942-57.55341c-.6-.06775-1.2-.08707-1.79035-.15482a14.87641 14.87641 0 00-3.484.19351 7.67456 7.67456 0 00-3.14526 1.27746 7.0856 7.0856 0 00-2.26455 2.66137 5.45411 5.45411 0 011.79036-3.25169 6.97145 6.97145 0 013.43557-1.63554 10.36211 10.36211 0 011.88717-.16451 17.17482 17.17482 0 011.86779.16451c.6.1355 1.20972.26132 1.8001.4452.57095.22256 1.15159.42582 1.71292.67745C417.32732 188.49087 416.737 188.39412 416.137 188.32637zm4.15172 55.463a1.45258 1.45258 0 010-2.90332A1.45258 1.45258 0 01420.2887 243.78936zm6.097-1.91617a1.45258 1.45258 0 010-2.90332A1.45258 1.45258 0 01426.38571 241.87319zm6.27114-2.43881a1.45258 1.45258 0 010-2.90331A1.45258 1.45258 0 01432.65685 239.43438zm5.92276-1.91617a1.45258 1.45258 0 010-2.90331A1.45258 1.45258 0 01438.57961 237.51821zM350.87046 195.546v-3.60014c-.55158-1.95486-10.70355-3.40651-10.70355-3.40651s-15.8908 2.01292-19.607 29.65247L311.73377 240.257l23.22652 17.65215 3.94853-7.66479a39.961 39.961 0 01-2.88394-7.897 63.57733 63.57733 0 01-1.46135-8.29381 78.76887 78.76887 0 01-.39676-8.40994 63.93635 63.93635 0 01.56127-8.38088c.00968 1.40328 0 2.79682.04837 4.19041.01938 1.39359.06775 2.78719.1355 4.18078.14519 2.7775.31939 5.555.61939 8.31319.28064 2.76781.71614 5.50662 1.2194 8.23574.3 1.35485.55164 2.72912.95809 4.055.3 1.36453.80327 2.66137 1.2 4.00653l2.50655 2.17748s15.93917-42.33032 36.3785-63.9503C366.98388 194.08462 350.87046 195.546 350.87046 195.546zm-35.101 44.75944a1.45258 1.45258 0 010-2.90331A1.45258 1.45258 0 01315.76942 240.3054zm4.87755 3.484a1.45258 1.45258 0 010-2.90332A1.45258 1.45258 0 01320.647 243.78936zm5.34212 3.484a1.45258 1.45258 0 010-2.90332A1.45258 1.45258 0 01325.98909 247.27337zm4.87755 3.48395a1.45258 1.45258 0 010-2.90331A1.45258 1.45258 0 01330.86664 250.75732zm4.413.58064a1.45245 1.45245 0 010 2.90332A1.45245 1.45245 0 01335.27967 251.338z"></path><path d="M329.05675 196.12012q.633-8.67745 1.39124-17.345c.52527-5.77609.99853-11.55807 1.56665-17.3305l.05932.37735-.78588-2.02765c-.17566-.71179-.39862-1.41165-.52008-2.14081a10.96262 10.96262 0 01.15466-4.4903 8.77574 8.77574 0 012.35577-3.904c.27082-.26843.57337-.49887.86054-.74826.312-.21255.61151-.44769.93811-.63647a9.98233 9.98233 0 012.08374-.984l-.3291.18393A39.392 39.392 0 01344.975 141.618a29.57592 29.57592 0 019.33941-3.06327 20.97625 20.97625 0 014.97541-.053 25.56777 25.56777 0 014.81433 1.04852 16.36761 16.36761 0 018.0177 5.6 40.376 40.376 0 014.75616 8.44741c1.30347 2.93876 2.40686 5.95813 3.56879 8.93287a66.57675 66.57675 0 004.06573 8.64694 36.33531 36.33531 0 002.576 3.99835 13.8004 13.8004 0 003.21826 3.3064l.03211.02078a.384.384 0 01.11346.531l-.02777.03763a39.92571 39.92571 0 01-8.17944 7.42441 56.3524 56.3524 0 01-9.80133 5.11762 73.73649 73.73649 0 01-10.57654 3.20388 71.39536 71.39536 0 01-10.96179 1.63071.8798.8798 0 01-.93408-.822l-.00177-.04831-.00019-.02945-.02-3.56537c.01288.14527.00641.06912.00275.07535-.00964-.016-.017-.03928-.03351-.06506a1.55416 1.55416 0 00-.13733-.18012 2.23411 2.23411 0 00-.50238-.36786 5.27576 5.27576 0 00-1.428-.51913 15.56535 15.56535 0 00-3.34918-.33466l-.87524-.00158a6.98079 6.98079 0 01-1.04371-.074 6.58926 6.58926 0 01-1.98852-.60785 12.60222 12.60222 0 01-5.21423-5.63656 29.94679 29.94679 0 01-2.573-6.96976l.69269.75174a4.94517 4.94517 0 01-1.97345-1.1167 3.11546 3.11546 0 01-.93866-2.37085 5.07 5.07 0 01.61816-2.13663 8.82177 8.82177 0 011.14984-1.70157.65655.65655 0 01.07312-.0733l.0672-.05658a4.56967 4.56967 0 00.82837-.83649 4.73465 4.73465 0 00.60535-1.04394 6.23353 6.23353 0 00.37445-1.1908 6.33576 6.33576 0 00.134-1.20834l.43811.78537a1.373 1.373 0 01-.28259-.25855c-.05573-.06442-.09021-.11462-.13446-.174a2.90735 2.90735 0 01-.18341-.30755 3.95123 3.95123 0 01-.24182-.56556 7.10534 7.10534 0 01-.2768-1.05822 14.19785 14.19785 0 01-.21948-2.01834 25.0246 25.0246 0 01.12567-3.934 29.70689 29.70689 0 01.69824-3.84095 33.35875 33.35875 0 011.14887-3.73639.90133.90133 0 011.72253.11976l.00476.02209a24.98574 24.98574 0 001.6004 4.80688 17.11848 17.11848 0 002.64771 4.26224 9.1069 9.1069 0 003.94049 2.76184 8.87661 8.87661 0 004.814.13138l.03247-.00741a.65174.65174 0 01.7807.49l.01184.06823c.55835 4.68613.94122 9.369 1.09045 14.07657.06561 2.35217.038 4.71-.0968 7.06156a28.6972 28.6972 0 01-1.09662 6.97366.09679.09679 0 01-.12164.06271.09949.09949 0 01-.06329-.11981 28.37424 28.37424 0 00.75189-6.9364c.02185-2.33423-.06232-4.6702-.23914-7.00089-.307-4.66-.83972-9.32046-1.54474-13.92666l.82477.55063a10.01778 10.01778 0 01-5.6-.00946 10.6423 10.6423 0 01-4.67237-3.11533 18.74037 18.74037 0 01-3.00146-4.60825 26.58147 26.58147 0 01-1.82746-5.15683l1.72712.14182a31.73772 31.73772 0 00-1.00232 3.52112 33.03365 33.03365 0 00-.6009 3.61584 23.09035 23.09035 0 00-.10052 3.62882 12.3032 12.3032 0 00.1944 1.74264 5.19407 5.19407 0 00.20282.7713 2.04493 2.04493 0 00.12927.3042 1.022 1.022 0 00.05756.09943.05327.05327 0 01.01007.01324c-.02094-.01461.0379.0206-.11438-.09271l.43835.78568a8.011 8.011 0 01-.16656 1.6752A8.21231 8.21231 0 01335.7553 169.5a6.72351 6.72351 0 01-.84222 1.464 6.56422 6.56422 0 01-1.20575 1.2239l.14007-.1296a6.96835 6.96835 0 00-.85461 1.284 3.12511 3.12511 0 00-.39185 1.29337 1.06237 1.06237 0 00.34918.8652 3.01379 3.01379 0 001.14667.61249l.03461.01285a1.06682 1.06682 0 01.65832.73916 29.41159 29.41159 0 002.3982 6.45255 10.73418 10.73418 0 004.26123 4.82336 4.63658 4.63658 0 001.42035.45346 5.04723 5.04723 0 00.74218.06293l.91828.01184a17.35547 17.35547 0 013.76794.4289 7.075 7.075 0 011.91669.7377 4.03134 4.03134 0 01.91974.71344 3.1893 3.1893 0 01.39422.53988 2.52809 2.52809 0 01.15687.34 1.61687 1.61687 0 01.10479.5101l-.02 3.609-.93579-.89957a77.05548 77.05548 0 0021.11151-4.33737 55.141 55.141 0 009.7154-4.70666 38.96829 38.96829 0 008.15924-7.02539l.11773.5892a15.17688 15.17688 0 01-3.4107-3.57706 36.99386 36.99386 0 01-2.58356-4.09451 80.10229 80.10229 0 01-4.06225-8.74161c-1.20569-2.97388-2.34021-5.95822-3.67121-8.858a35.6896 35.6896 0 00-4.8468-8.12564 15.24635 15.24635 0 00-7.64416-4.99213 24.23179 24.23179 0 00-4.58289-.84765 19.46262 19.46262 0 00-4.59918.19574c-6.12567.94311-11.79694 4.2882-16.57221 8.20166l-.004.00326a1.064 1.064 0 01-.32544.18088 8.9467 8.9467 0 00-3.22425 1.9306 7.15336 7.15336 0 00-1.96191 3.155 9.42267 9.42267 0 00-.16486 3.809c.09894.6456.29773 1.28507.44318 1.9289l.70416 1.88427.01837.04917a.72652.72652 0 01.041.32861c-.632 5.76334-1.3587 11.51718-2.03345 17.27689q-1.0426 8.63638-2.20886 17.26239a.09673.09673 0 01-.10742.0848A.09855.09855 0 01329.05675 196.12012zM338.90819 250.24711a21.2055 21.2055 0 003.1698 2.15195A13.33148 13.33148 0 00345.54 253.74a9.352 9.352 0 003.66125.14679 14.67852 14.67852 0 003.64289-1.08478 8.83038 8.83038 0 01-3.494 1.82513 8.53739 8.53739 0 01-2.00421.28562 10.21682 10.21682 0 01-2.01856-.22922A10.88632 10.88632 0 01338.90819 250.24711zM370.9 252.21827a12.07347 12.07347 0 003.52076.617 15.79169 15.79169 0 003.50152-.30032 14.61583 14.61583 0 001.71558-.42465c.57983-.12915 1.12128-.37958 1.69354-.554.56006-.20578 1.10681-.45331 1.67389-.66748.55-.24884 1.09735-.51047 1.677-.73431-.46216.40384-.95141.77936-1.44751 1.15042-.52575.31876-1.04291.6676-1.59936.94266a13.83354 13.83354 0 01-3.52826 1.23672 11.29865 11.29865 0 01-3.75788.09985A7.42684 7.42684 0 01370.9 252.21827zM440.5758 239.86405a48.51544 48.51544 0 012.91394 4.82968 29.07407 29.07407 0 012.02252 5.28919 29.47913 29.47913 0 01.90564 11.27719 34.26353 34.26353 0 01-1.14075 5.56891l-1.54529 5.41c-1.02014 3.6095-2.124 7.19534-3.19085 10.79164l.01043-.07548-.00012.00949-.00018.00926a.25367.25367 0 01-.01032.06647q-2.81332 9.31389-5.38647 18.69549c-.20923.78313-.4552 1.55985-.61328 2.34078a14.55169 14.55169 0 00-.27716 2.37915 15.84728 15.84728 0 00.60443 4.74467 88.06846 88.06846 0 011.57757 9.63133c.37592 3.23093.62549 6.47138.81378 9.71622a73.86763 73.86763 0 01.06171 9.78923 20.12536 20.12536 0 01-.35571 2.46878 7.25932 7.25932 0 01-.92682 2.43585 2.987 2.987 0 01-1.05994.9887 2.72224 2.72224 0 01-1.43762.28645 4.5302 4.5302 0 01-.68524-.09976 2.83977 2.83977 0 01-.69678-.2776 3.25183 3.25183 0 01-1.028-.98426 10.42251 10.42251 0 01-1.31964-4.88914 31.40569 31.40569 0 01.07086-4.93685l.83233.15152a25.33025 25.33025 0 01-5.13165 9.77448 6.85258 6.85258 0 01-2.15314 1.82912 4.6263 4.6263 0 01-2.79486.4613 3.50686 3.50686 0 01-1.356-.46878 1.87726 1.87726 0 01-.83936-1.17142 4.671 4.671 0 01.48932-2.70689l.0058-.0147a.04756.04756 0 01.08929.03269 4.55653 4.55653 0 00-.34637 2.62585 2.07454 2.07454 0 002.00836 1.31082 4.31781 4.31781 0 002.51593-.50891 6.32563 6.32563 0 001.93634-1.76437 25.67956 25.67956 0 004.757-9.62174.42423.42423 0 01.83343.13764l-.0011.01388a30.57091 30.57091 0 00.02375 4.78069 10.01142 10.01142 0 001.18829 4.40639 2.27709 2.27709 0 00.70935.68509 1.86917 1.86917 0 00.42938.17033 3.56969 3.56969 0 00.51685.07341 1.68646 1.68646 0 001.60986-.84123 10.60823 10.60823 0 001.09711-4.43637 78.487 78.487 0 00.02136-9.652q-.22824-4.84678-.6767-9.67993c-.31952-3.21642-.70752-6.43036-1.33221-9.59638a16.59522 16.59522 0 01-.49091-4.88432 14.95606 14.95606 0 01.34571-2.439c.19018-.8032.4328-1.57468.65143-2.355q2.7095-9.343 5.1845-18.75234l-.01043.07537-.00012-.00949a.249.249 0 01.00811-.06716l.00238-.00871c.97345-3.62276 1.91-7.25595 2.93018-10.86551l1.5152-5.41861a33.41875 33.41875 0 001.17981-5.4277 31.01246 31.01246 0 00-.66883-11.04016 32.15363 32.15363 0 00-1.81274-5.272c-.75006-1.70773-1.73724-3.303-2.65588-4.94094a.04839.04839 0 01.08258-.05039zM409.702 343.10278l-.009.01022-.01342.01138-.00751.00459a6.972 6.972 0 01-1.39588.69433 5.43369 5.43369 0 01-1.55542.3092 5.5445 5.5445 0 01-1.60266-.14174 5.17312 5.17312 0 01-1.54028-.61494l-.01678-.01235-.02045-.01825a5.54129 5.54129 0 01-1.38641-1.68905 2.76691 2.76691 0 01-.02619-2.39063 4.58356 4.58356 0 011.49213-1.72038 11.38328 11.38328 0 011.82068-1.07581 13.22088 13.22088 0 003.10211-2.14869 13.8704 13.8704 0 002.29132-2.9641 9.82993 9.82993 0 001.16547-3.47051 13.91135 13.91135 0 00-.09461-3.76832l-.05463-.49745a1.42306 1.42306 0 00-.06237-.307 1.35069 1.35069 0 00-.31141-.52392 1.17374 1.17374 0 00-1.128-.299 1.2874 1.2874 0 00-1.01519.695 4.64045 4.64045 0 00-.28962 1.72577 6.00841 6.00841 0 01-1.98309 3.85907 6.4251 6.4251 0 01-3.91614 1.61931 5.26 5.26 0 01-2.13275-.26225 2.21586 2.21586 0 01-1.46448-1.67716 4.3475 4.3475 0 01.21875-2.12526 7.66923 7.66923 0 01.38294-.96708c.14789-.32416.34167-.61014.48529-.89582a20.51044 20.51044 0 001.53735-3.63043 8.81047 8.81047 0 00.42963-3.792l-.09222-.44988-.09473-.54251a4.58387 4.58387 0 01-.01819-1.10617 7.77514 7.77514 0 01.57312-2.052 18.79822 18.79822 0 012.0669-3.57157 69.89746 69.89746 0 015.19262-6.15079A14.115 14.115 0 00413.306 296.394c.17157-1.1997.22168-2.59738.33258-3.9129l.294-3.996c.23138-2.661.42212-5.32544.6878-7.98355.475-5.32092 1.07465-10.63165 1.62982-15.94485l.93818-7.95722a12.70878 12.70878 0 00-.16883-3.86444 17.45663 17.45663 0 00-1.31756-3.72479.09685.09685 0 01.16992-.09149l.00323.00491a13.20129 13.20129 0 012.26368 7.74546l-.41236 8.01162c-.34888 5.33243-.65088 10.66751-1.07825 15.99234-.18554 2.66477-.44592 5.32321-.66571 7.98508l-.38275 3.98834c-.14715 1.3421-.20984 2.61894-.44568 4.06012a15.3027 15.3027 0 01-3.68237 7.538c-1.91186 1.9804-3.77118 3.7836-5.43982 5.8284a17.02506 17.02506 0 00-2.141 3.22532 6.84921 6.84921 0 00-.60266 1.76328 3.72907 3.72907 0 00-.03326.88894l.05065.44846.08081.53668a10.1474 10.1474 0 01-.60473 4.08942 22.97063 22.97063 0 01-1.63275 3.716 7.58818 7.58818 0 00-.80835 1.76435 3.769 3.769 0 00-.17584 1.81856c.23211 1.18921 1.69256 1.42531 2.90991 1.27352a5.488 5.488 0 003.256-1.60169 4.82375 4.82375 0 001.39026-3.20647 5.68118 5.68118 0 01.28583-2.20957 2.83379 2.83379 0 012.03576-1.64789 3.16245 3.16245 0 011.33631-.01046 2.67822 2.67822 0 011.25311.67392 3.024 3.024 0 01.75525 1.15047 3.10257 3.10257 0 01.16485.66606l.05835.49774a14.59491 14.59491 0 01.10273 4.21489 11.53565 11.53565 0 01-1.43476 4.05736 14.13955 14.13955 0 01-2.6875 3.278 13.64323 13.64323 0 01-3.55438 2.258 10.1062 10.1062 0 00-1.67682.86537 3.60957 3.60957 0 00-1.19525 1.193 1.66055 1.66055 0 00-.08435 1.47627 5.17938 5.17938 0 001.033 1.47083l-.03693-.03033a4.49024 4.49024 0 001.23145.62785 4.92229 4.92229 0 001.40961.26457 5.32221 5.32221 0 001.45031-.13846 6.6685 6.6685 0 001.408-.48779l-.02063.01575.01019-.009a.097.097 0 01.13691.13686zM304.17968 256.4701a9.297 9.297 0 012.24975-.66553 15.73931 15.73931 0 012.30335-.136q2.30667-.104 4.6214-.12754a.04859.04859 0 01.0097.09629q-2.27242.441-4.5531.80151a15.73449 15.73449 0 01-2.28387.32855 9.2951 9.2951 0 01-2.33747-.201.05121.05121 0 01-.00976-.09628z"></path><path d="M407.23137 344.4436a33.36692 33.36692 0 007.34009-6.97976 24.29692 24.29692 0 002.62476-4.36993 17.96632 17.96632 0 001.379-4.92184 18.08812 18.08812 0 01-1.156 5.01557 24.65511 24.65511 0 01-2.45514 4.559 34.07457 34.07457 0 01-7.18548 7.49513.48415.48415 0 11-.58222-.77372l.017-.01227zM415.63421 347.38908a31.83574 31.83574 0 002.82458-4.01557 49.6144 49.6144 0 002.38458-4.36363 32.66675 32.66675 0 001.81287-4.63106 15.71626 15.71626 0 00.75891-4.9106 15.83827 15.83827 0 01-.52533 4.97379 33.03538 33.03538 0 01-1.6048 4.76567 50.22031 50.22031 0 01-2.19854 4.53023 32.17853 32.17853 0 01-2.73163 4.29707.48411.48411 0 11-.76044-.59933l.014-.017zM427.357 342.42266c.51612-1.36711.97083-2.76637 1.45344-4.18159l.74914-2.11043c.2572-.70383.54419-1.38986.73224-2.08406a45.82309 45.82309 0 001.44855-8.71277 46.16163 46.16163 0 01-.75391 8.88348c-.34253 1.48535-.65082 2.89537-.92218 4.35529-.27124 1.44768-.52533 2.924-.85034 4.396l-.00134.00607a.97049.97049 0 01-1.89533-.41844A1.06622 1.06622 0 01427.357 342.42266zM364.48746 368.41136s-8.04324 43.8407 7.46047 42.44711 15.68254-39.67788 14.80922-44.57518"></path><path d="M355.24285 369.01917a16.1136 16.1136 0 012.40625 4.97786 30.04231 30.04231 0 011.13153 5.45046c.24646 1.83105.25421 3.73787.3465 5.50035.08313 1.79286.23059 3.58742.44915 5.37237a70.54066 70.54066 0 001.95411 10.58084 26.19531 26.19531 0 001.86914 4.98665c.80053 1.5353 1.8988 3.10155 3.73449 3.50817a4.20014 4.20014 0 01-2.61279-.9338A9.36619 9.36619 0 01362.589 406.384a22.02111 22.02111 0 01-2.49615-5.01939 48.7702 48.7702 0 01-2.43836-10.8239c-.187-1.83944-.33234-3.68388-.35406-5.53724.01068-1.88326.04394-3.62784-.01941-5.433a39.96912 39.96912 0 00-.55048-5.35005A21.0741 21.0741 0 00355.24285 369.01917zM297.10045 359.87626c-5.74713.69408-11.51831 1.16505-17.30456 1.50574q-4.341.25815-8.70459.21353c-1.45526-.01663-2.913-.0632-4.37836-.1897a14.70259 14.70259 0 01-4.46631-.91389l.17517.05888c-2.92938-.49239-5.90429-.8729-8.8695-1.15019a85.37537 85.37537 0 00-8.89722-.47844c-.74-.00513-1.47348.04405-2.21033.06288-.73242.04417-1.46023.11569-2.18731.18213-.708.12776-1.44678.17889-2.12909.366l-2.197.54148a19.281 19.281 0 01-9.34342-.64537 25.967 25.967 0 01-4.33334-1.73754 17.74048 17.74048 0 01-3.93363-2.644 7.636 7.636 0 01-1.62622-1.99873 3.20212 3.20212 0 01-.37158-1.53l.0463-.65861.11215-.62451a12.51281 12.51281 0 011.96213-4.42156 20.365 20.365 0 017.03094-6.155 32.81162 32.81162 0 018.676-3.12791l-.06232.01631a48.689 48.689 0 0112.00162-1.9254 24.7025 24.7025 0 013.082.136l1.52637.24863c.47619.08206.94982.18034 1.4342.2258a25.84683 25.84683 0 005.8454.03447 25.55724 25.55724 0 005.72467-1.23169 11.46437 11.46437 0 002.59973-1.24344l.55756-.4314c.21575-.15982.42419-.33539.64685-.47728a9.701 9.701 0 011.39294-.69479 25.715 25.715 0 015.89246-1.33539 57.69845 57.69845 0 015.98712-.38492c-1.99207.14824-3.97418.39864-5.93628.72831a25.28983 25.28983 0 00-5.70233 1.56022 9.08386 9.08386 0 00-1.255.69687c-.19146.13493-.35815.29283-.53894.43538l-.60437.51311a12.23477 12.23477 0 01-2.72522 1.463 24.2456 24.2456 0 01-5.91363 1.47834 27.004 27.004 0 01-6.10761.13037c-.51178-.03459-1.01989-.12384-1.52954-.19808l-1.43561-.19384a23.36113 23.36113 0 00-2.90051-.04654 52.48176 52.48176 0 00-11.557 2.11l-.012.00341-.05069.013a31.11744 31.11744 0 00-8.18731 3.02994 18.59283 18.59283 0 00-6.35746 5.64529 10.70734 10.70734 0 00-1.64581 3.76654l-.08438.48375-.02771.46472a1.26845 1.26845 0 00.17059.62684 5.89686 5.89686 0 001.23151 1.45153 21.35952 21.35952 0 007.52325 4.00653 17.49256 17.49256 0 008.43589.68274l2.1791-.51681c.77048-.19876 1.5398-.24666 2.30954-.37541.76743-.06427 1.53549-.132 2.30106-.171.76364-.01343 1.52994-.05653 2.29092-.04462A98.16332 98.16332 0 01262.68 359.20167a.688.688 0 01.15308.04852l.02246.01048a13.84182 13.84182 0 003.98224.89652c1.41315.16125 2.847.247 4.28284.30261 2.87323.11679 5.75952.08666 8.64666.06813 2.88764-.03123 5.77716-.1161 8.6659-.2334C291.32146 360.16724 294.21154 360.04168 297.10045 359.87626z"></path><path d="M219.97918,355.16773a9.17572,9.17572,0,0,1,2.00134-4.422A20.1701,20.1701,0,0,1,225.476,347.263a34.80468,34.80468,0,0,1,8.67282-4.6376l2.30582-.86191,2.35422-.69653c1.5628-.50286,3.16373-.82462,4.75442-1.203,1.58664-.4099,3.20688-.60642,4.81272-.89635.82507-.12567,1.56305-.29153,2.45984-.384a17.451,17.451,0,0,1,2.54486-.00819,42.34265,42.34265,0,0,0,9.44159-.57422,17.9446,17.9446,0,0,0,4.40393-1.34631,9.69873,9.69873,0,0,0,.9859-.53295c.32336-.1856.7102-.44833,1.07727-.64016a17.21393,17.21393,0,0,1,2.31555-1.04444,23.42361,23.42361,0,0,1,4.84735-1.14807,48.85464,48.85464,0,0,1,4.8808-.48683,24.1968,24.1968,0,0,1,9.64612,1.25728,26.04522,26.04522,0,0,0-9.56915-.31157q-2.38322.28247-4.733.78964a23.69682,23.69682,0,0,0-4.52142,1.306,15.64516,15.64516,0,0,0-2.05713,1.04574c-.34064.2003-.619.39946-.98828.63045a11.38977,11.38977,0,0,1-1.12762.65279,19.65491,19.65491,0,0,1-4.80024,1.62547,42.78734,42.78734,0,0,1-9.87664.71013,15.63549,15.63549,0,0,0-2.30158-.02034c-.7132.06418-1.56091.23416-2.3349.34594-1.57989.263-3.175.4643-4.73376.81917-1.5651.32672-3.14783.59777-4.67991,1.04531l-2.31808.6085-2.27539.73287a37.607,37.607,0,0,0-8.6391,3.99173,19.46644,19.46644,0,0,0-3.6496,3.0397,7.28585,7.28585,0,0,0-.76468.91431,7.1719,7.1719,0,0,0-.67446.98536A6.77,6.77,0,0,0,219.97918,355.16773Z"></path><path d="M242.91493,340.90746s-2.02264,15.07191,4.48079,20.15594c0,0,7.80542.25807,8.08348,0,0,0-6.6485-13.81562-2.83682-21.55342"></path><path fill="none" stroke="#000" stroke-linecap="round" stroke-linejoin="round" stroke-width=".968" d="M267.08019,332.64317s.3805-7.73382,7.53564-7.20572"></path><path d="M244.49138,255.0463c-2.03271-2.22842-4.00155-4.5094-5.9656-6.79428l-5.81125-6.92123c-1.92066-2.32062-3.75845-4.70932-5.61389-7.08353q-2.7677-3.574-5.65094-7.05307a.1536.1536,0,0,1,.00494-.20175l.01535-.01672a2.95855,2.95855,0,0,0,.467-1.1222,11.99127,11.99127,0,0,0,.2482-1.28451c.1333-.86566.22266-1.74045.2999-2.616l.44128-5.259c.12915-1.75568.244-3.51273.40607-5.26694l.48654-5.2641.00287-.0311a.343.343,0,0,1,.37311-.31.35553.35553,0,0,1,.0925.02176c1.54846.60089,3.0979,1.19885,4.62591,1.86123a.04857.04857,0,0,1-.03049.09183c-1.62066-.38348-3.21994-.83139-4.82019-1.2764l.4683-.31918c-.04816,1.76825-.07962,3.53519-.19553,5.29883-.09409,1.76477-.26254,3.52484-.45984,5.28241-.19058,1.75808-.41275,3.51468-.72418,5.26089-.16132.87229-.33313,1.743-.53516,2.6095-.10025.43368-.21991.86276-.34112,1.29455a3.02455,3.02455,0,0,1-.60508,1.26719l.02027-.21821q2.85485,3.50241,5.82846,6.90711c1.971,2.27917,3.95965,4.54385,5.86548,6.87662l5.66809,7.03894c1.86239,2.3685,3.72,4.74093,5.51376,7.16586a.04844.04844,0,0,1-.07474.06146Z"></path><path d="M224.90191,226.1988A4.85554,4.85554,0,0,1,226.204,224.868a17.4504,17.4504,0,0,1,1.54343-1.03208c1.06021-.6362,2.16406-1.18753,3.27105-1.72726,2.21521-1.08,4.50824-1.97378,6.79306-2.87649q3.4407-1.32125,6.95954-2.41562l7.05115-2.12387a.17782.17782,0,0,1,.18127.04867c2.27588,2.53388,4.634,4.99259,7.04321,7.40012l7.25049,7.19272q3.63474,3.58218,7.341,7.08078c1.23334,1.16793,2.502,2.29428,3.76471,3.42407a32.428,32.428,0,0,0,3.91694,3.09387l.05267.03262a.3682.3682,0,0,1,.11914.50687l-.0221.03177-2.61883,3.376-.00806.01034a.25352.25352,0,0,1-.15686.09433c-1.92834.33438-3.86761.61331-5.80206.9166a.04843.04843,0,0,1-.01868-.095c1.90521-.452,3.80567-.92829,5.717-1.34916l-.16455.10447,2.43982-3.50757.1496.571a31.56206,31.56206,0,0,1-4.214-3.073c-1.31482-1.09719-2.58014-2.248-3.83594-3.40536-2.526-2.30142-4.91736-4.73731-7.30011-7.17716-2.37878-2.44409-4.69513-4.94686-6.9751-7.48114l-3.44488-3.77673c-1.14209-1.26428-2.311-2.50342-3.49164-3.73187l.18091.04858c-2.33252.74558-4.62659,1.617-6.92658,2.4571l-6.89169,2.53421c-2.30283.82705-4.56991,1.74127-6.83145,2.66253-1.12589.47159-2.23682.97644-3.32352,1.52429a9.28987,9.28987,0,0,0-2.96838,2.04236l-.00357.00431a.04825.04825,0,0,1-.0791-.05463Z"></path><path d="M237.43026 214.72291q-4.40754-3.31284-8.73108-6.72849l.51294-.261a50.31779 50.31779 0 01-.08133 8.13314 24.64132 24.64132 0 01-.69962 4.05146 10.28682 10.28682 0 01-.752 1.97549 4.15656 4.15656 0 01-1.48929 1.69724.47743.47743 0 01-.55057-.7768l.00711-.00583c1.57755-1.30725 3.2273-2.47513 4.90949-3.61392 1.686-1.12854 3.41632-2.1915 5.19345-3.17435a36.82333 36.82333 0 0111.40594-4.15374l.00818-.00129a.153.153 0 01.13459.04682c1.02478 1.10846 2.05035 2.21606 3.05828 3.34106-1.10723-1.02743-2.19677-2.0722-3.2871-3.11615l.14245.04544a36.419 36.419 0 00-5.70148 1.855 57.3432 57.3432 0 00-5.3591 2.70472 73.11929 73.11929 0 00-9.888 6.79818l-.54342-.78259a5.32416 5.32416 0 001.83963-3.08691 23.80335 23.80335 0 00.72042-3.89319 64.186 64.186 0 00.30436-8.00873l-.00037-.01532a.31217.31217 0 01.51346-.24579Q233.30737 211.06173 237.43026 214.72291zM226.16707 209.71555a35.91077 35.91077 0 01-.27542 7.12345 33.25234 33.25234 0 01-.6503 3.51349 10.404 10.404 0 01-1.3106 3.34429 27.18541 27.18541 0 00.568-3.48162l.43411-3.50318A65.63409 65.63409 0 01226.16707 209.71555z"></path><path d="M233.60235 219.57969a39.13686 39.13686 0 016.48135-3.369c1.12933-.45523 2.26843-.891 3.44089-1.2413a13.60059 13.60059 0 013.61322-.68457c-1.15406.41107-2.23944.92218-3.35279 1.39343-1.10418.48917-2.2167.95862-3.33139 1.42606A64.633 64.633 0 01233.60235 219.57969zM278.63408 246.72111a37.30991 37.30991 0 01-5.17944-3.72431 36.88055 36.88055 0 01-4.55688-4.46447 36.88233 36.88233 0 015.17944 3.72427A37.30774 37.30774 0 01278.63408 246.72111z"></path><path fill="none" stroke="#000" stroke-linecap="round" stroke-linejoin="round" stroke-width=".968" d="M337.863 165.70257s1.17117-2.23135 6.85675-1.98667M337.863 182.65793a5.6067 5.6067 0 004.6453-4.87757M337.28235 174.06411s.92906 2.67105-1.39359 2.09039"></path><path d="M341.69538 169.12848a1.45253 1.45253 0 000-2.90332 1.45253 1.45253 0 000 2.90332zM449.81524 329.37748a4.44976 4.44976 0 001.55127-1.72418c.40429-.68863.75567-1.41713 1.10717-2.14969a49.11837 49.11837 0 012.29474-4.36723 16.87154 16.87154 0 017.30255-6.92612 16.57127 16.57127 0 0110.04029-.98908 26.37257 26.37257 0 014.785 1.43645c1.53748.60434 3.01331 1.3264 4.50733 1.92786l-.40552.48877c-2.80042-4.94422-5.90314-9.70708-9.01666-14.46341-3.12189-4.75135-6.096-9.59133-9.08686-14.42127-2.97839-4.83746-5.87524-9.72378-8.64007-14.68936-1.40369-2.47-2.79773-4.9458-4.13941-7.453q-2.04913-3.73884-3.9801-7.54862a.097.097 0 01.166-.09955q2.45216 3.497 4.78711 7.06446c1.58069 2.3638 3.10907 4.759 4.62775 7.16 3.08 4.77648 6.02789 9.6322 8.89435 14.53679 2.85394 4.9121 5.72455 9.81416 8.44751 14.80487 2.7312 4.9857 5.47333 9.96489 8.5177 14.76273a.33378.33378 0 01-.39594.49249l-.0097-.00362a39.08593 39.08593 0 00-9.27527-2.58992 18.79387 18.79387 0 00-9.12964 1.13788 14.39361 14.39361 0 00-3.83832 2.51445 22.31314 22.31314 0 00-3.08752 3.56041c-.91821 1.30593-1.75983 2.68514-2.62586 4.07477-.44183.68961-.88781 1.384-1.39471 2.04654a4.31979 4.31979 0 01-1.93591 1.59807.09671.09671 0 01-.0744-.17781zM363.09188 378.56887s-8.59657.01-7.849 1.17129c0 0 .81493 6.005 1.90886 6.03889h5.94017M389.24492 179.76954a23.53955 23.53955 0 015.365-1.29511 15.77821 15.77821 0 015.52009.2183 8.92192 8.92192 0 014.78112 2.8038 3.36857 3.36857 0 01.59113 1.35364 11.65305 11.65305 0 01.24145 1.3843c.10981.92392.1543 1.84781.17517 2.77042a121.1846 121.1846 0 01-2.29351 21.9119 194.42879 194.42879 0 01-5.1355 21.424 161.72607 161.72607 0 01-7.69013 20.643 106.37142 106.37142 0 01-10.97528 19.07111 42.65243 42.65243 0 01-7.73126 7.8351 40.18624 40.18624 0 01-9.588 5.41528l-2.598.94568-2.67267.70991a25.27889 25.27889 0 01-2.712.53362l-1.36383.23308c-.45636.06367-.91852.08038-1.37756.1228a36.94206 36.94206 0 01-11.02112-.547 42.4498 42.4498 0 01-5.35773-1.41537 41.98208 41.98208 0 01-5.06695-2.2524l-1.22864-.64711a5.23824 5.23824 0 01-1.2063-.7885 15.53446 15.53446 0 01-1.92773-2.06012c-.582-.72663-1.12677-1.47767-1.64161-2.25169-.25811-.38641-.50433-.78241-.74371-1.18573-.11426-.20886-.235-.40643-.34112-.629a3.27455 3.27455 0 01-.158-.34384c-.025-.06534-.04944-.115-.074-.19351a2.40075 2.40075 0 01-.05487-.29456.29978.29978 0 01.045-.19821l.025-.039c1.14239-1.78766 2.27533-3.58609 3.37506-5.39764.54486-.90537 1.09857-1.81861 1.58014-2.73352l.08941-.171c-.21313.19134.30188-.28577.25812-.23905l.0224-.00967.0448-.01932.0896-.03867.35846-.15451c.2384-.10412.48022-.20065.7113-.32077.47022-.2232.933-.46051 1.38373-.72091a21.67451 21.67451 0 008.53858-8.85321c.92364-1.83377 1.67755-3.87561 2.55182-5.803l2.585-5.83853c1.76721-3.87262 3.55835-7.735 5.44781-11.55051q5.58656-11.48566 12.29108-22.38886a122.97109 122.97109 0 0115.28106-20.4436.22808.22808 0 01.06324-.04526 40.97145 40.97145 0 006.17688-3.687 34.509 34.509 0 002.81744-2.2507A29.15667 29.15667 0 00389.24492 179.76954zm.05622.07876a28.52576 28.52576 0 01-2.48535 2.62278 34.731 34.731 0 01-2.78266 2.32858 41.28019 41.28019 0 01-6.15149 3.86258l.06293-.045a123.00436 123.00436 0 00-14.95441 20.53454c-4.37127 7.27765-8.30737 14.80942-12.04272 22.43457-1.87653 3.809-3.65534 7.6659-5.41028 11.53272l-2.56677 5.83c-.8736 1.94754-1.59223 3.9061-2.59369 5.865a22.65146 22.65146 0 01-8.972 9.20606c-.47174.269-.95581.51407-1.44751.74423-.24169.12357-.49432.22339-.74346.33057l-.37458.159-.09369.03971-.04681.01983-.02338.01c-.06207.05.44623-.41141.22583-.2048l-.09619.18179c-.51428.96366-1.0697 1.86588-1.62536 2.77884-1.11652 1.817-2.25971 3.61017-3.41645 5.399l.06983-.23685a.05718.05718 0 01.01648.04169l.04974.12677a2.776 2.776 0 00.127.28119c.08826.19278.20435.38846.3075.58288.22406.38748.45727.77295.704 1.15161.49151.75809 1.01562 1.49849 1.57141 2.20917a14.80783 14.80783 0 001.79907 1.97264 4.55676 4.55676 0 001.08136.71955l1.19708.648a41.26757 41.26757 0 004.94641 2.269 41.81608 41.81608 0 005.24933 1.45164 35.86074 35.86074 0 0010.85437.65374c.45349-.03817.9101-.05051 1.36121-.10975l1.34845-.21952a24.87333 24.87333 0 002.6839-.50513l2.64825-.68 2.57727-.91463a39.81759 39.81759 0 009.54163-5.287 39.31134 39.31134 0 007.65948-7.7768 99.42234 99.42234 0 0010.70288-19.1138 202.643 202.643 0 0012.59278-41.96875c.67682-3.5957 1.2547-7.21054 1.702-10.84027a89.16529 89.16529 0 00.80359-10.92169c-.00744-.91-.03863-1.81995-.13238-2.71814a5.58887 5.58887 0 00-.68073-2.48386 8.65715 8.65715 0 00-4.50494-2.765 15.48752 15.48752 0 00-5.40546-.34165A23.7389 23.7389 0 00389.30114 179.8483z"></path><path fill="#fcfcfc" d="M401.82366,218.14341a3.27731,3.27731,0,0,1-.07744.32907c-.08713-.39682-.17419-.80327-.25163-1.20972C401.61072,217.55308,401.71722,217.85309,401.82366,218.14341Z"></path><line x1="411.701" x2="411.701" y1="263.454" y2="269.861" fill="none" stroke="#000" stroke-miterlimit="10" stroke-width=".968"></line><path d="M328.13917 274.79682a1.45253 1.45253 0 000-2.90332 1.45253 1.45253 0 000 2.90332zM333.88774 279.15179a1.45252 1.45252 0 000-2.90331 1.45252 1.45252 0 000 2.90331zM341.72669 282.63577a1.45253 1.45253 0 000-2.90332 1.45253 1.45253 0 000 2.90332zM351.30763 283.33256a1.45252 1.45252 0 000-2.90331 1.45252 1.45252 0 000 2.90331zM360.88857 280.71958a1.45252 1.45252 0 000-2.90331 1.45252 1.45252 0 000 2.90331zM369.25011 276.01621a1.45252 1.45252 0 000-2.90331 1.45252 1.45252 0 000 2.90331zM377.08906 268.87406a1.45253 1.45253 0 000-2.90332 1.45253 1.45253 0 000 2.90332zM383.88282 258.59632a1.45252 1.45252 0 000-2.90331 1.45252 1.45252 0 000 2.90331zM388.76039 249.18958a1.45252 1.45252 0 000-2.90331 1.45252 1.45252 0 000 2.90331zM392.59276 238.73765a1.45253 1.45253 0 000-2.90332 1.45253 1.45253 0 000 2.90332zM395.55414 229.15671a1.45253 1.45253 0 000-2.90332 1.45253 1.45253 0 000 2.90332zM398.51553 219.22737a1.45252 1.45252 0 000-2.90331 1.45252 1.45252 0 000 2.90331zM400.78011 208.25284a1.45252 1.45252 0 000-2.90331 1.45252 1.45252 0 000 2.90331zM401.8253 199.0203a1.45252 1.45252 0 000-2.90331 1.45252 1.45252 0 000 2.90331zM402.5221 188.56837a1.45253 1.45253 0 000-2.90332 1.45253 1.45253 0 000 2.90332zM452.80751 319.2756a1.45252 1.45252 0 000-2.90331 1.45252 1.45252 0 000 2.90331zM456.98829 314.6303a1.45253 1.45253 0 000-2.90332 1.45253 1.45253 0 000 2.90332zM463.02718 311.84312a1.45253 1.45253 0 000-2.90332 1.45253 1.45253 0 000 2.90332zM469.53061 311.37859a1.45253 1.45253 0 000-2.90332 1.45253 1.45253 0 000 2.90332zM474.87271 312.77218a1.45253 1.45253 0 000-2.90332 1.45253 1.45253 0 000 2.90332zM482.74069 321.54019c3.73629 0 3.74248-5.80663 0-5.80663-3.73629 0-3.74248 5.80663 0 5.80663z"></path><path fill="#020202" d="M313.52642,241.62254l-9.25226,14.95181-.02173.03509-.03943.01062a80.2814,80.2814,0,0,1-12.28589,2.281,62.452,62.452,0,0,1-6.25427.30551,37.23784,37.23784,0,0,1-6.24811-.60376l-.17529-.03345-.02081-.183a18.20973,18.20973,0,0,0-.52735-3.40936,10.40364,10.40364,0,0,0-1.46545-3.0697,10.53824,10.53824,0,0,0-5.402-3.97571l-.133-.04285-.04432-.1333-2.75909-8.30075-.68976-2.0752-.34491-1.03762-.17242-.5188a1.91255,1.91255,0,0,0-.2005-.42524,1.815,1.815,0,0,0-3.11017.07346,1.7927,1.7927,0,0,0-.23682.89008,5.72812,5.72812,0,0,0,.17078,1.00973l.45019,2.14.90039,4.28.90046,4.28a1.61648,1.61648,0,0,1,.0495.67191,1.19667,1.19667,0,0,1-1.78406.81146,1.1932,1.1932,0,0,1-.49683-.56778l-.18225-.54556-.33813-1.03973-2.705-8.31788-.67627-2.07949c-.11121-.33045-.22882-.72928-.33472-1.00354a1.74544,1.74544,0,0,0-3.325.41418,2.2361,2.2361,0,0,0,.08136.93833l.232,1.06842.464,2.13687.928,4.27377.928,4.27374.23322,1.08127a1.27056,1.27056,0,0,1-.67285,1.35913,8.59712,8.59712,0,0,1-1.18335.33594,1.27507,1.27507,0,0,1-1.33051-.73975l-2.704-8.36605-1.34118-4.16242-.33533-1.04062a1.68046,1.68046,0,0,0-.44061-.74682,1.65991,1.65991,0,0,0-1.58435-.43076,1.59456,1.59456,0,0,0-1.15992,1.14279,1.88683,1.88683,0,0,0-.04284.86957l.22833,1.05225.93964,4.27105,1.86352,8.5719a1.32336,1.32336,0,0,1-2.28961,1.09625,1.61213,1.61213,0,0,1-.33392-.65628l-.16852-.52011-.337-1.04016-1.348-4.16073-1.348-4.16068-.66882-2.04385a1.6841,1.6841,0,0,0-2.85578-.42591,1.71558,1.71558,0,0,0-.3638.78086,2.14929,2.14929,0,0,0,.068.91794l.8973,4.28054,1.79465,8.561.33643,1.6048-1.03955-1.26648-3.49759-4.26123.69445-.33378a42.37407,42.37407,0,0,0,2.07975,6.75751,17.12982,17.12982,0,0,0,1.61639,3.0907,6.34253,6.34253,0,0,0,1.10474,1.25708,9.73147,9.73147,0,0,0,1.43512.94095,10.43624,10.43624,0,0,0,3.246,1.13043,9.88935,9.88935,0,0,0,1.71521.14453c.59509-.00079,1.20746.00357,1.80871.03723a34.081,34.081,0,0,1,7.10859,1.22242l.083.02267.06025.055a49.51536,49.51536,0,0,0,9.2705,6.35865c3.27216,1.88366,6.57648,3.712,9.9234,5.45646,3.35065,1.73465,6.73542,3.41141,10.21161,4.865a34.31317,34.31317,0,0,0,10.79047,3.00394,20.05244,20.05244,0,0,0,10.8352-2.227,29.3536,29.3536,0,0,0,8.62684-7.14381,56.22063,56.22063,0,0,0,6.33587-9.3534,98.278,98.278,0,0,0,4.85462-10.23507,98.34243,98.34243,0,0,1-4.73413,10.30078,56.429,56.429,0,0,1-6.24665,9.46475,29.69272,29.69272,0,0,1-8.645,7.33115,20.07763,20.07763,0,0,1-11.06231,2.3676,34.81825,34.81825,0,0,1-10.96759-2.9979c-3.50513-1.44868-6.90735-3.11679-10.27539-4.84257-3.36359-1.73539-6.68256-3.55384-9.96918-5.42762a50.17674,50.17674,0,0,1-9.4137-6.40429l.14295.07751a33.377,33.377,0,0,0-6.9668-1.17c-.58923-.03028-1.16925-.03205-1.766-.02887a10.62723,10.62723,0,0,1-1.84369-.14737,11.18216,11.18216,0,0,1-3.48157-1.19592,10.46857,10.46857,0,0,1-1.55487-1.01163,7.02949,7.02949,0,0,1-1.25625-1.4129,17.86457,17.86457,0,0,1-1.70249-3.22992,43.106,43.106,0,0,1-2.1398-6.8924l-.37051-1.62668,1.06506,1.29288,3.50519,4.255-.703.33826-1.83-8.552-.915-4.276a3.0422,3.0422,0,0,1-.07874-1.24683,2.56126,2.56126,0,0,1,4.88639-.54608c.26721.755.46606,1.4021.70239,2.10846l1.36505,4.15421,1.365,4.1542.34125,1.03855a4.10726,4.10726,0,0,0,.31055.83618.37887.37887,0,0,0,.65527-.31494l-1.85492-8.52085-.92193-4.2749-.23035-1.08551a2.81024,2.81024,0,0,1,.0697-1.2937,2.52443,2.52443,0,0,1,1.82239-1.76993,2.58379,2.58379,0,0,1,3.10577,1.7894l.331,1.042,1.32391,4.168,2.63666,8.291a.43372.43372,0,0,0,.45025.25287c.21241-.05139.7616-.19033.92017-.24969a.43826.43826,0,0,0,.23346-.46716l-.22382-1.057-.91021-4.27722-.91022-4.27722-.45508-2.13862-.2276-1.0693a3.02341,3.02341,0,0,1-.08429-1.22537,2.50355,2.50355,0,0,1,4.76959-.58518c.15393.40683.23432.7106.35511,1.071l.6676,2.08209,2.67035,8.32837.3338,1.041.16028.49253a.50309.50309,0,0,0,.20953.24133.51791.51791,0,0,0,.60858-.06268.52763.52763,0,0,0,.15735-.282.99186.99186,0,0,0-.04462-.40826l-.88244-4.28265-.88251-4.28266-.44122-2.14135a6.08494,6.08494,0,0,1-.18006-1.14371,2.43122,2.43122,0,0,1,4.48786-1.28452,2.51891,2.51891,0,0,1,.26214.56192l.17023.51938.34052,1.03879.681,2.07754,2.72406,8.31034-.17713-.17587a11.075,11.075,0,0,1,5.66187,4.20251,10.91963,10.91963,0,0,1,1.52441,3.22681,18.65458,18.65458,0,0,1,.53015,3.49951l-.19586-.21619a39.39078,39.39078,0,0,0,6.1568.65064,62.06692,62.06692,0,0,0,6.21216-.22885,80.01262,80.01262,0,0,0,12.2633-2.12467l-.06085.04553Z"></path></svg>